<svg xmlns="http://www.w3.org/2000/svg" width="52.449" height="46.366" viewBox="0 0 52.449 46.366"><g transform="translate(-1.25 -15.95)"><g transform="translate(1.25 15.95)"><path d="M63.576,72.264V98.669H18.1V72.264a4.285,4.285,0,0,0,5.6-4.078V67.2H57.976v.989A4.287,4.287,0,0,0,63.576,72.264Z" transform="translate(-14.614 -56.594)" fill="#72c1e8"/><path d="M12.32,67.2v.988a4.285,4.285,0,1,1-8.57,0V67.2Z" transform="translate(-3.233 -56.596)" fill="#efefef"/><path d="M53.738,67.2v.988a4.284,4.284,0,1,1-8.568,0V67.2Z" transform="translate(-36.083 -56.596)" fill="#fc5d3d"/><path d="M86.583,67.2v.988a4.285,4.285,0,0,0,8.569,0V67.2Z" transform="translate(-68.928 -56.596)" fill="#efefef"/><path d="M128,67.2v.988a4.284,4.284,0,1,0,8.569,0V67.2Z" transform="translate(-101.775 -56.596)" fill="#fc5d3d"/><path d="M177.988,67.2v.988a4.284,4.284,0,1,1-8.568,0V67.2Z" transform="translate(-134.626 -56.594)" fill="#efefef"/><path d="M219.4,67.2v.988a4.285,4.285,0,1,1-8.57,0V67.2Z" transform="translate(-167.468 -56.594)" fill="#fc5d3d"/><path d="M60.364,219.93v2.532a.621.621,0,0,1-.621.621h-46.5a.621.621,0,0,1-.621-.621V219.93a.621.621,0,0,1,.621-.621h46.5A.621.621,0,0,1,60.364,219.93Z" transform="translate(-10.268 -177.234)" fill="#afafaf"/><path d="M16.209,18.451,12.32,28.537H3.75L9.587,18.451Z" transform="translate(-3.233 -17.934)" fill="#efefef"/><path d="M204.489,28.537h-8.57l-3.89-10.086h6.623Z" transform="translate(-152.558 -17.934)" fill="#fc5d3d"/><path d="M210.77,32.934h-5.78a.517.517,0,0,1,0-1.034h4.883l-2.993-5.172a.517.517,0,1,1,.9-.518l3.442,5.948A.517.517,0,0,1,210.77,32.934Z" transform="translate(-162.426 -23.882)" fill="#ffcbc3"/><path d="M55.685,18.451,53.738,28.537H45.17l3.89-10.086Z" transform="translate(-36.083 -17.934)" fill="#fc5d3d"/><path d="M170.525,28.537h-8.568L160.01,18.451h6.625Z" transform="translate(-127.163 -17.934)" fill="#efefef"/><path d="M173.837,55.735H165.71a.517.517,0,0,1,0-1.034h8.127a.517.517,0,0,1,0,1.034Z" transform="translate(-131.273 -46.683)" fill="#fff"/><path d="M95.15,18.451V28.537H86.58l1.947-10.086Z" transform="translate(-68.925 -17.934)" fill="#efefef"/><path d="M94.7,55.735h-8.17a.517.517,0,1,1,0-1.034H94.7a.517.517,0,0,1,0,1.034Z" transform="translate(-68.473 -46.683)" fill="#fff"/><path d="M24.123,55.735h-2.67a.517.517,0,1,1,0-1.034h2.67a.517.517,0,1,1,0,1.034Zm-4.739,0H18.142a.517.517,0,0,1,0-1.034h1.241a.517.517,0,1,1,0,1.034Z" transform="translate(-14.237 -46.683)" fill="#fff"/><path d="M136.57,28.537H128V18.451h6.623Z" transform="translate(-101.775 -17.934)" fill="#fc5d3d"/><path d="M134.23,55.735h-8.212a.517.517,0,0,1,0-1.034h8.212a.517.517,0,0,1,0,1.034Z" transform="translate(-99.793 -46.683)" fill="#ffcbc3"/><path d="M55.216,55.736H47.047a.517.517,0,1,1,0-1.035h8.168a.517.517,0,0,1,0,1.035Z" transform="translate(-37.162 -46.684)" fill="#ffcbc3"/><path d="M34.668,110.992h38.62v18.371H34.668Z" transform="translate(-27.754 -91.328)" fill="#efefef"/><path d="M86.187,149.122v1.608a.621.621,0,0,0,.621.621h.867v7.761H102v-7.761h.866a.621.621,0,0,0,.621-.621v-1.608a.621.621,0,0,0-.621-.621H86.808A.621.621,0,0,0,86.187,149.122Z" transform="translate(-68.614 -121.076)" fill="#f0c020"/><path d="M103.488,186.863H99.35a.517.517,0,1,1,0-1.035h4.138a.517.517,0,1,1,0,1.035Z" transform="translate(-78.643 -150.68)" fill="#f8e5b0"/><path d="M136.633,173.077h-3.948a.517.517,0,1,1,0-1.035h3.431v-3.079a.517.517,0,1,1,1.035,0v3.6A.517.517,0,0,1,136.633,173.077Z" transform="translate(-105.08 -136.895)" fill="#f8e5b0"/><path d="M56.817,157.689c-.762-.252-1.549-.472-1.991-2.375-.407,1.753-1.059,2.067-1.991,2.375a2.644,2.644,0,0,1,1.991,2.375C55.243,158.27,55.931,157.982,56.817,157.689Z" transform="translate(-42.162 -126.48)" fill="#f0c020"/><path d="M184.077,129.876c-.762-.252-1.549-.472-1.991-2.375-.407,1.753-1.059,2.067-1.991,2.375a2.644,2.644,0,0,1,1.991,2.375C182.5,130.457,183.191,130.169,184.077,129.876Z" transform="translate(-143.092 -104.421)" fill="#f0c020"/><path d="M67.443,125.7H28.89a.517.517,0,0,1,0-1.035H66.926V103.531a.517.517,0,1,1,1.035,0v21.654A.517.517,0,0,1,67.443,125.7Zm-40.623,0H25.684a.517.517,0,1,1,0-1.035h1.136a.517.517,0,0,1,0,1.035Z" transform="translate(-20.219 -85)" fill="#c5e5fe"/><path d="M121.333,148.5h2.759v10.611h-2.759Z" transform="translate(-96.488 -121.076)" fill="#fc5d3d"/><path d="M122.11,186.863h-2.759a.517.517,0,1,1,0-1.035h2.759a.517.517,0,0,1,0,1.035Z" transform="translate(-94.506 -150.68)" fill="#ffcbc3"/><path d="M50.239,186.863H45.067a.517.517,0,1,1,0-1.035h5.172a.517.517,0,0,1,0,1.035Zm-7.241,0h-.527a.517.517,0,0,1,0-1.035H43a.517.517,0,0,1,0,1.035Z" transform="translate(-33.532 -150.68)" fill="#fff"/><path d="M177.9,135.441h-7.886a.517.517,0,1,1,0-1.034h7.369v-12.9a.517.517,0,0,1,1.035,0v13.415A.517.517,0,0,1,177.9,135.441Z" transform="translate(-134.689 -99.259)" fill="#fff"/><path d="M55.021,155.248c-.718-.236-1.278-.389-1.653-2.005a.512.512,0,0,0-1,0c-.367,1.58-.878,1.749-1.653,2.005a.512.512,0,0,0,0,.972c1.287.425,1.432,1.054,1.653,2.005a.512.512,0,0,0,1,0c.366-1.58.906-1.758,1.653-2.005A.512.512,0,0,0,55.021,155.248Zm-2.141,1.345a2.658,2.658,0,0,0-.8-.847,2.536,2.536,0,0,0,.793-.892,2.61,2.61,0,0,0,.765.885A2.532,2.532,0,0,0,52.88,156.593Z" transform="translate(-40.206 -124.525)"/><path d="M177.978,128.408c1.287.425,1.432,1.054,1.653,2.005a.512.512,0,0,0,1,0c.366-1.58.906-1.758,1.653-2.005a.512.512,0,0,0,0-.972c-.718-.236-1.278-.389-1.653-2.005a.512.512,0,0,0-1,0c-.367,1.58-.878,1.749-1.653,2.005A.512.512,0,0,0,177.978,128.408Zm2.153-1.367a2.61,2.61,0,0,0,.765.885,2.532,2.532,0,0,0-.757.854,2.658,2.658,0,0,0-.8-.847,2.541,2.541,0,0,0,.793-.892Z" transform="translate(-141.135 -102.467)"/><circle cx="0.517" cy="0.517" r="0.517" transform="translate(48.445 23.249)"/><circle cx="0.517" cy="0.517" r="0.517" transform="translate(11.481 41.558)"/><path d="M53.629,26.295,47.793,16.208a.517.517,0,0,0-.448-.258H7.6a.516.516,0,0,0-.447.259L5.5,19.072a.515.515,0,0,0,.188.708.533.533,0,0,0,.706-.188s0,0,0,0l1.506-2.6h5.571c-1.478,3.833-.73,1.894-3.492,9.052H2.663l1.659-2.863a.519.519,0,0,0-.188-.708.531.531,0,0,0-.708.188L1.32,26.295a.575.575,0,0,0-.07.259v.987a4.8,4.8,0,0,0,2.969,4.44V57.508a1.14,1.14,0,0,0-1.134,1.138v2.532a1.14,1.14,0,0,0,1.138,1.138h46.5a1.14,1.14,0,0,0,1.138-1.138V58.646a1.14,1.14,0,0,0-1.134-1.138V41.786a.517.517,0,0,0-1.035,0V57.508H15.317a.517.517,0,0,0,0,1.035H50.726a.1.1,0,0,1,.1.1v2.532a.105.105,0,0,1-.1.1H4.223a.1.1,0,0,1-.1-.1V58.646a.1.1,0,0,1,.1-.1h6.956a.517.517,0,0,0,0-1.035H5.254V32.276a4.79,4.79,0,0,0,5.084-2.571,4.8,4.8,0,0,0,8.567,0,4.8,4.8,0,0,0,8.57,0,4.8,4.8,0,0,0,8.569,0,4.8,4.8,0,0,0,8.568,0,4.787,4.787,0,0,0,5.066,2.573l.018,0v5.371a.517.517,0,1,0,1.034,0V31.98a4.8,4.8,0,0,0,2.969-4.44v-.988a.559.559,0,0,0-.07-.258ZM9.82,27.541a3.768,3.768,0,0,1-7.535,0v-.47H9.82Zm8.568,0a3.767,3.767,0,1,1-7.533,0v-.469h7.533Zm.089-1.5H11.091l3.491-9.052h5.643C19.212,22.231,19.623,20.107,18.477,26.036Zm8.48,1.506a3.768,3.768,0,0,1-7.535,0v-.472h7.535Zm0-1.506H19.532l.315-1.635,1.432-7.417h5.679Zm1.034-9.052H33.67c.941,4.873.554,2.872,1.746,9.052H27.992Zm7.535,10.556v0a3.768,3.768,0,1,1-7.535,0v-.472h7.535Zm-.8-10.556h5.642l3.492,9.052H36.471c-1.525-7.9-1.165-6.037-1.747-9.052Zm9.37,10.556a3.767,3.767,0,1,1-7.533,0v-.47h7.533ZM41.476,16.985h5.571l5.238,9.052H44.967l-3.491-9.052ZM52.665,27.541a3.768,3.768,0,1,1-7.535,0v-.469h7.535Z" transform="translate(-1.25 -15.95)"/><path d="M17.408,39.244a.511.511,0,0,0-.188-.706.529.529,0,0,0-.706.188.516.516,0,0,0,.894.517Z" transform="translate(-13.301 -33.812)"/><path d="M71.306,127.9a.517.517,0,0,0,.517-.517V109.009a.517.517,0,0,0-.517-.517H32.685a.517.517,0,0,0-.517.517V127.38a.517.517,0,0,0,.517.517ZM50.1,126.863H45.349v-6.726H50.1Zm0-7.761H43.965a.1.1,0,0,1-.1-.1v-1.608a.1.1,0,0,1,.1-.1H50.1Zm-1.236-5.466a1.49,1.49,0,0,1,2.105,0,5.148,5.148,0,0,1,.508,2.616c-.648,0-2.184-.082-2.613-.511A1.49,1.49,0,0,1,48.862,113.637Zm4,13.226H51.133v-9.575h1.726Zm.166-13.226a1.488,1.488,0,0,1,2.1,2.1c-.429.429-1.971.511-2.613.511A5.161,5.161,0,0,1,53.024,113.637Zm5.618,13.227H53.893v-6.726h4.749ZM53.893,119.1v-1.815h6.133a.1.1,0,0,1,.1.1V119a.1.1,0,0,1-.1.1Zm-9.578,7.761H33.2V109.527H70.789v17.337H59.677v-6.726h.349A1.139,1.139,0,0,0,61.164,119v-1.608a1.139,1.139,0,0,0-1.138-1.138H56.055a2.518,2.518,0,0,0-.194-3.347,2.481,2.481,0,0,0-3.865.411,2.484,2.484,0,0,0-3.865-.411,2.526,2.526,0,0,0-.194,3.347H43.965a1.139,1.139,0,0,0-1.138,1.138V119a1.139,1.139,0,0,0,1.138,1.138h.349Z" transform="translate(-25.771 -89.345)"/></g></g></svg>