<svg xmlns="http://www.w3.org/2000/svg" width="62" height="62" viewBox="0 0 62 62"><g transform="translate(-1 -1)"><path d="M2,36H62v4H2Z" fill="#5b382d"/><path d="M6,38H62V36H4A2,2,0,0,0,6,38Z" fill="#9c6152"/><path d="M4,40H60V62H4Z" fill="#9c6152"/><path d="M7,55a4,4,0,0,0,4,4H60V40H7Z" fill="#b28376"/><path d="M4,2H8V36H4Z" fill="#5b382d"/><path d="M6,2V32a2,2,0,0,0,2,2V2Z" fill="#9c6152"/><path d="M56,2h4V36H56Z" fill="#5b382d"/><path d="M58,2V32a2,2,0,0,0,2,2V2Z" fill="#9c6152"/><path d="M36,15h3V12a3,3,0,0,0-3-3H28a3,3,0,0,0-3,3v3h3v8h8Z" fill="#b0322f"/><path d="M39,12a3,3,0,0,0-3-3H28a2.983,2.983,0,0,0-.86.14A2.983,2.983,0,0,0,27,10v1.5A1.5,1.5,0,0,0,28.5,13,1.5,1.5,0,0,1,30,14.5V18a3,3,0,0,0,3,3h3V15h3Z" fill="#d83b3e"/><path d="M30,9v1a2,2,0,0,0,4,0V9Z" fill="#b0322f"/><rect width="14" height="4" rx="2" transform="translate(38 28)" fill="#469c65"/><path d="M50,28H40a2,2,0,0,0,2,2H52A2,2,0,0,0,50,28Z" fill="#58c17e"/><rect width="12" height="4" rx="2" transform="translate(49 48)" fill="#469c65"/><path d="M59,48H51a2,2,0,0,0,2,2h8A2,2,0,0,0,59,48Z" fill="#58c17e"/><path d="M48,52l2,10H60l2-10Z" fill="#e6b25e"/><path d="M52,52l1,10h4l1-10Z" fill="#f3d16e"/><path d="M40,46H24a5,5,0,0,0,0,10H40a5,5,0,0,0,0-10Z" fill="#e6b25e"/><path d="M40,46H24a4.95,4.95,0,0,0-2.375.625A4.95,4.95,0,0,0,21,49a5,5,0,0,0,5,5H42a4.95,4.95,0,0,0,2.375-.625A4.95,4.95,0,0,0,45,51,5,5,0,0,0,40,46Z" fill="#f3d16e"/><rect width="12" height="4" rx="2" transform="translate(49 44)" fill="#469c65"/><path d="M59,44H51a2,2,0,0,0,2,2h8A2,2,0,0,0,59,44Z" fill="#58c17e"/><rect width="14" height="4" rx="2" transform="translate(38 32)" fill="#e6b25e"/><path d="M50,32H40a2,2,0,0,0,2,2H52A2,2,0,0,0,50,32Z" fill="#f3d16e"/><rect width="14" height="4" rx="2" transform="translate(13 32)" fill="#b0322f"/><path d="M25,32H15a2,2,0,0,0,2,2H27A2,2,0,0,0,25,32Z" fill="#d83b3e"/><path d="M50,15h3V12a3,3,0,0,0-3-3H42a3,3,0,0,0-3,3v3h3v8h8Z" fill="#469c65"/><path d="M53,12a3,3,0,0,0-3-3H42a2.983,2.983,0,0,0-.86.14A2.983,2.983,0,0,0,41,10v1.5A1.5,1.5,0,0,0,42.5,13,1.5,1.5,0,0,1,44,14.5V18a3,3,0,0,0,3,3h3V15h3Z" fill="#58c17e"/><path d="M44,9v1a2,2,0,0,0,4,0V9Z" fill="#469c65"/><path d="M22,15h3V12a3,3,0,0,0-3-3H14a3,3,0,0,0-3,3v3h3v8h8Z" fill="#e6b25e"/><path d="M25,12a3,3,0,0,0-3-3H14a2.983,2.983,0,0,0-.86.14A2.983,2.983,0,0,0,13,10v1.5A1.5,1.5,0,0,0,14.5,13,1.5,1.5,0,0,1,16,14.5V18a3,3,0,0,0,3,3h3V15h3Z" fill="#f3d16e"/><path d="M16,9v1a2,2,0,0,0,4,0V9Z" fill="#e6b25e"/><path d="M62,41a1,1,0,0,0,1-1V36a1,1,0,0,0-1-1H61V2a1,1,0,0,0-1-1H56a1,1,0,0,0-1,1V5H47a3,3,0,0,0-6,0H33a3,3,0,0,0-6,0H19a3,3,0,0,0-6,0H9V2A1,1,0,0,0,8,1H4A1,1,0,0,0,3,2V35H2a1,1,0,0,0-1,1v4a1,1,0,0,0,1,1H3V62a1,1,0,0,0,1,1H60a1,1,0,0,0,.98-.8l2-10A1,1,0,0,0,62,51h-.184a2.908,2.908,0,0,0-.6-3A2.96,2.96,0,0,0,61,43.78V41ZM57,3h2V35H57ZM47,10a1,1,0,0,1-2,0Zm-5,4H40V12a2,2,0,0,1,2-2h1a3,3,0,0,0,6,0h1a2,2,0,0,1,2,2v2H50a1,1,0,0,0-1,1v7H43V15A1,1,0,0,0,42,14ZM44,4a1,1,0,0,1,1,1H43A1,1,0,0,1,44,4ZM33,7H45V8H42a3.975,3.975,0,0,0-3,1.382A3.975,3.975,0,0,0,36,8H33Zm-5,7H26V12a2,2,0,0,1,2-2h1a3,3,0,0,0,6,0h1a2,2,0,0,1,2,2v2H36a1,1,0,0,0-1,1v7H29V15A1,1,0,0,0,28,14Zm5-4a1,1,0,0,1-2,0ZM30,4a1,1,0,0,1,1,1H29A1,1,0,0,1,30,4ZM19,7H31V8H28a3.975,3.975,0,0,0-3,1.382A3.975,3.975,0,0,0,22,8H19Zm-5,7H12V12a2,2,0,0,1,2-2h1a3,3,0,0,0,6,0h1a2,2,0,0,1,2,2v2H22a1,1,0,0,0-1,1v7H15V15A1,1,0,0,0,14,14Zm5-4a1,1,0,0,1-2,0ZM16,4a1,1,0,0,1,1,1H15A1,1,0,0,1,16,4ZM9,7h8V8H14a4,4,0,0,0-4,4v3a1,1,0,0,0,1,1h2v7a1,1,0,0,0,1,1h8a1,1,0,0,0,1-1V16h4v7a1,1,0,0,0,1,1h8a1,1,0,0,0,1-1V16h4v7a1,1,0,0,0,1,1h8a1,1,0,0,0,1-1V16h2a1,1,0,0,0,1-1V12a4,4,0,0,0-4-4H47V7h8V35H52.816a2.908,2.908,0,0,0-.6-3A2.987,2.987,0,0,0,50,27H40a2.987,2.987,0,0,0-2.22,5,2.908,2.908,0,0,0-.6,3H27.816A2.966,2.966,0,0,0,28,34a3,3,0,0,0-3-3H15a3,3,0,0,0-3,3,2.966,2.966,0,0,0,.184,1H9ZM50,31H40a1,1,0,0,1,0-2H50a1,1,0,0,1,0,2Zm1,3a1,1,0,0,1-1,1H40a1,1,0,0,1,0-2H50A1,1,0,0,1,51,34ZM26,34a1,1,0,0,1-1,1H15a1,1,0,0,1,0-2H25A1,1,0,0,1,26,34ZM5,3H7V35H5ZM48.78,48a2.908,2.908,0,0,0-.6,3H48a1,1,0,0,0-.98,1.2L48.779,61H5V41H59v2H51a2.987,2.987,0,0,0-2.22,5ZM59,47H51a1,1,0,0,1,0-2h8a1,1,0,0,1,0,2Zm1,3a1,1,0,0,1-1,1H51a1,1,0,0,1,0-2h8A1,1,0,0,1,60,50ZM50.819,61l-1.6-8H51.1l.8,8ZM56.1,61H53.91l-.8-8H56.9Zm3.085,0H58.1l.8-8H60.78ZM3,39V37H61v2Z"/><path d="M24,57H40a6,6,0,0,0,0-12H24a6,6,0,0,0,0,12Zm0-10H40a4,4,0,0,1,0,8H24a4,4,0,0,1,0-8Z"/><path d="M24,50H36v2H24Z"/><path d="M38,50h2v2H38Z"/></g></svg>