<svg xmlns="http://www.w3.org/2000/svg" width="53.37" height="53.37" viewBox="0 0 53.37 53.37"><g transform="translate(-289.236 -4141.297)"><g transform="translate(289.236 4141.297)"><rect width="53.37" height="53.37" rx="26.685" transform="translate(0)" fill="#f3f0ea"/></g><g transform="translate(296.488 4145.027)"><g transform="translate(0.64 6.859)"><path d="M71.379,85.558l-4.6-4.6a2.053,2.053,0,0,0-1.452-.6H57.347a2.053,2.053,0,0,0-1.452.6l-19.72,19.72a1.368,1.368,0,0,0,0,1.935l13.547,13.547a1.368,1.368,0,0,0,1.935,0l19.72-19.72a2.052,2.052,0,0,0,.6-1.452V87.009A2.052,2.052,0,0,0,71.379,85.558Zm-5.413,3.713a2.053,2.053,0,1,1,0-2.9A2.053,2.053,0,0,1,65.965,89.271Z" transform="translate(-35.775 -80.353)" fill="#ff8086"/><path d="M112.462,221.055l-8.615-8.615a1.435,1.435,0,0,0-2.03,0L93.2,221.055a1.435,1.435,0,0,0,0,2.03l8.615,8.615,2.525-.5,8.119-8.119A1.435,1.435,0,0,0,112.462,221.055Z" transform="translate(-87.916 -200.781)" fill="#fff"/><path d="M39.623,103.093a2.053,2.053,0,0,1,0-2.9L59.46,80.353H57.347a2.053,2.053,0,0,0-1.452.6l-19.72,19.72a1.368,1.368,0,0,0,0,1.935l13.547,13.547a1.369,1.369,0,0,0,1.935,0l.514-.514Z" transform="translate(-35.774 -80.353)" fill="#e5646e"/><path d="M104.342,212.936l-.5-.5a1.435,1.435,0,0,0-2.03,0L93.2,221.055a1.435,1.435,0,0,0,0,2.03l8.615,8.615a1.435,1.435,0,0,0,2.03,0l.5-.5-8.6-8.6a.751.751,0,0,1,0-1.062Z" transform="translate(-87.915 -200.782)" fill="#faf5dc"/></g><g transform="translate(0)"><path d="M140.855,317.681l5.806,5.806a.64.64,0,1,0,.905-.905l-5.806-5.806a.64.64,0,1,0-.905.905Z" transform="translate(-131.074 -289.565)"/><path d="M175.455,295.332a.64.64,0,0,0,.453-1.093l-5.806-5.806a.64.64,0,0,0-.905.905L175,295.145A.638.638,0,0,0,175.455,295.332Z" transform="translate(-156.996 -263.642)"/><path d="M203.8,266.992a.64.64,0,0,0,.453-1.093l-5.806-5.806a.64.64,0,1,0-.905.905l5.806,5.806A.638.638,0,0,0,203.8,266.992Z" transform="translate(-182.919 -237.721)"/><path d="M93.522,231.753a.64.64,0,0,0-.905,0l-6.726,6.726a2.075,2.075,0,0,0,0,2.935l8.615,8.615a2.075,2.075,0,0,0,2.935,0,.64.64,0,1,0-.905-.905.8.8,0,0,1-1.124,0L86.8,240.509a.795.795,0,0,1,0-1.124l6.726-6.726A.64.64,0,0,0,93.522,231.753Z" transform="translate(-80.416 -211.799)"/><path d="M195.687,223.591a.638.638,0,0,0,.453-.188l6.726-6.726a2.078,2.078,0,0,0,0-2.935l-8.614-8.615a2.075,2.075,0,0,0-2.935,0,.64.64,0,0,0,.905.905.795.795,0,0,1,1.124,0l8.615,8.615a.8.8,0,0,1,0,1.124l-6.726,6.726a.64.64,0,0,0,.453,1.093Z" transform="translate(-177.228 -187.062)"/><path d="M66.831,2.507A4,4,0,0,0,63.079,0a6.072,6.072,0,0,0-6.065,6.065V11.71a2.694,2.694,0,1,0,1.28,0V7.5h.17a1.4,1.4,0,0,1,1,.414l4.6,4.6a1.4,1.4,0,0,1,.414,1v7.976a1.4,1.4,0,0,1-.414,1L44.346,42.21a.729.729,0,0,1-1.03,0L29.769,28.663a.728.728,0,0,1,0-1.03l19.72-19.72a1.4,1.4,0,0,1,1-.414h4.429a.64.64,0,0,0,0-1.28H50.487a2.675,2.675,0,0,0-1.9.789l-19.72,19.72a2.009,2.009,0,0,0,0,2.841L42.411,43.115a2.011,2.011,0,0,0,2.841,0L64.971,23.4a2.675,2.675,0,0,0,.789-1.9V13.515a2.675,2.675,0,0,0-.789-1.9L63.122,9.762l2.829-2.829a4,4,0,0,0,.88-4.426ZM59.066,14.325a1.412,1.412,0,1,1-.414-1,1.4,1.4,0,0,1,.414,1Zm5.979-8.3L62.217,8.856,60.368,7.007a2.676,2.676,0,0,0-1.9-.789h-.17V6.065A4.791,4.791,0,0,1,63.079,1.28,2.743,2.743,0,0,1,65.648,3,2.743,2.743,0,0,1,65.045,6.028Z" transform="translate(-28.275)"/></g></g></g></svg>