<svg xmlns="http://www.w3.org/2000/svg" width="65" height="65" viewBox="0 0 65 65"><g transform="translate(-600 -3080.108)"><g transform="translate(6615.383 12243.573)"><circle cx="32.5" cy="32.5" r="32.5" transform="translate(-6015.383 -9163.465)" fill="#ff7630"/></g><g transform="translate(621.502 3091.027)"><g transform="translate(0.632 0.632)"><path d="M137.447,41.027a8.368,8.368,0,0,1-7.668,8.339c-.27.023-.544.033-.82.029a8.369,8.369,0,0,1-4.1-15.6V11.712a4.215,4.215,0,0,1,8.43,0V33.8A8.366,8.366,0,0,1,137.447,41.027Z" transform="translate(-120.711 -7.497)" fill="#e9f5ff"/><g transform="translate(7.084)"><path d="M214.392,41.027a8.368,8.368,0,0,1-7.668,8.339,3.143,3.143,0,0,1,.008-.607,8.371,8.371,0,0,0,5.131-7.719c0-3.085-1.669-5.105-4.153-6.556V11.725A4.216,4.216,0,0,0,204.739,7.7a4.217,4.217,0,0,1,5.5,4.015V33.8A8.366,8.366,0,0,1,214.392,41.027Z" transform="translate(-204.739 -7.497)" fill="#bde2ef"/></g><g transform="translate(2.529 2.542)"><path d="M159.488,63.6a2.53,2.53,0,0,1-1.253-2.183V39.333a1.686,1.686,0,1,0-3.372,0V61.417a2.529,2.529,0,0,1-1.254,2.183,5.839,5.839,0,1,0,5.879,0Z" transform="translate(-150.709 -37.647)" fill="#ff6e6e"/></g><g transform="translate(7.809 2.542)"><path d="M216.838,63.6a2.53,2.53,0,0,1-1.253-2.183V39.333a1.687,1.687,0,0,0-2.246-1.591A1.683,1.683,0,0,1,213.9,39V63.019a2.53,2.53,0,0,0,1.253,2.183,5.868,5.868,0,0,1,2.9,5.047A5.789,5.789,0,0,1,217,73.6a5.842,5.842,0,0,0-.16-10Z" transform="translate(-213.339 -37.647)" fill="#f44e92"/></g><path d="M203.351,39.333V45.87h-3.372V39.333a1.686,1.686,0,0,1,3.372,0Z" transform="translate(-193.296 -35.105)" fill="#4f667a"/><g transform="translate(7.809 2.542)"><path d="M213.9,37.647a1.686,1.686,0,0,0-.56.1A1.683,1.683,0,0,1,213.9,39V45.87h1.686V39.333A1.688,1.688,0,0,0,213.9,37.647Z" transform="translate(-213.339 -37.647)" fill="#3a5366"/></g></g><g transform="translate(0 0)"><path d="M308.625,47.325h6.388a.632.632,0,1,0,0-1.265h-6.388a.632.632,0,1,0,0,1.265Z" transform="translate(-291.572 -42.177)"/><path d="M308.625,81.954h3.194a.632.632,0,0,0,0-1.265h-3.194a.632.632,0,0,0,0,1.265Z" transform="translate(-291.572 -73.887)"/><path d="M315.013,115.689h-6.388a.632.632,0,1,0,0,1.265h6.388a.632.632,0,1,0,0-1.265Z" transform="translate(-291.572 -105.936)"/><path d="M308.625,151.582h3.194a.632.632,0,0,0,0-1.265h-3.194a.632.632,0,0,0,0,1.265Z" transform="translate(-291.572 -137.645)"/><path d="M315.013,184.8h-6.388a.632.632,0,1,0,0,1.265h6.388a.632.632,0,1,0,0-1.265Z" transform="translate(-291.572 -169.223)"/><path d="M308.625,220.7h3.194a.632.632,0,0,0,0-1.265h-3.194a.632.632,0,0,0,0,1.265Z" transform="translate(-291.572 -200.933)"/><path d="M315.013,254.568h-6.388a.632.632,0,1,0,0,1.265h6.388a.632.632,0,1,0,0-1.265Z" transform="translate(-291.572 -233.107)"/><path d="M311.819,289.2h-3.194a.632.632,0,0,0,0,1.265h3.194a.632.632,0,0,0,0-1.265Z" transform="translate(-291.572 -264.816)"/><path d="M127.061,26.493V10.2a.632.632,0,1,0-1.265,0V26.847a.632.632,0,0,0,.313.546,7.845,7.845,0,0,1,3.84,6.769,7.736,7.736,0,0,1-15.47.189,7.823,7.823,0,0,1,3.837-6.958.632.632,0,0,0,.313-.546v-22a3.583,3.583,0,0,1,7.166,0V7.266a.632.632,0,0,0,1.265,0V4.848a4.848,4.848,0,0,0-9.7,0V26.493a9.1,9.1,0,0,0-4.15,7.888,9.026,9.026,0,0,0,8.87,8.781h.129a9,9,0,0,0,9-9,9.125,9.125,0,0,0-4.153-7.669Z" transform="translate(-113.213 0)"/><path d="M147.063,57.28a3.172,3.172,0,0,0,1.567-2.73V52.5a.632.632,0,1,0-1.265,0V54.55a1.9,1.9,0,0,1-.94,1.638,6.477,6.477,0,0,0,3.166,12.064h.086a6.471,6.471,0,0,0,6.477-6.471,6.5,6.5,0,0,0-3.213-5.593A1.9,1.9,0,0,1,152,54.55V32.466a2.318,2.318,0,1,0-4.637,0V49.531a.632.632,0,1,0,1.265,0v-9.9h2.108V54.55a3.172,3.172,0,0,0,1.567,2.73,5.232,5.232,0,0,1,2.586,4.5,5.207,5.207,0,1,1-7.827-4.5Zm1.567-18.908v-5.9a1.054,1.054,0,1,1,2.108,0v5.9Z" transform="translate(-140.683 -27.606)"/></g></g></g></svg>