<svg xmlns="http://www.w3.org/2000/svg" width="65" height="65" viewBox="0 0 65 65"><circle cx="32.5" cy="32.5" r="32.5" fill="#9ec9ff"/><g transform="translate(24.051 10.641)"><path d="M145.6,33.185V15.036a4.154,4.154,0,0,0-8.309,0V33.181a9.975,9.975,0,1,0,8.309,0Z" transform="translate(-130.977 -10.382)" fill="#2084e4"/><path d="M151.4,64.278a9.969,9.969,0,1,1-14.078-10.019V36.114a4.113,4.113,0,0,1,.64-2.213c.113.16.227.32.347.48.953,1.267,2.106,2.373,3.06,3.64a7.648,7.648,0,0,1,1.773,4.333c.073,3.7-3.853,6.906-2.946,10.5.467,1.86,2.2,3.38,2.073,5.3s-2.086,3.246-2.606,5.113a3.625,3.625,0,0,0,5.106,4.22c1.926-.967,3.02-3.613,5.173-3.646A2.627,2.627,0,0,1,151.4,64.278Z" transform="translate(-131.004 -31.461)" fill="#0568de"/><path d="M214.445,343.944a3.581,3.581,0,1,1-3.582-3.579A3.584,3.584,0,0,1,214.445,343.944Z" transform="translate(-200.393 -312.088)" fill="#d5dee6"/><path d="M136.017,47.282a10.465,10.465,0,0,0,4.658-19.842V9.607a4.654,4.654,0,1,0-9.308,0V27.437a10.467,10.467,0,0,0,4.65,19.845Zm-3.942-19.075a.5.5,0,0,0,.292-.454V9.607a3.654,3.654,0,1,1,7.308,0V27.755a.5.5,0,0,0,.291.454,9.467,9.467,0,1,1-7.891,0Z" transform="translate(-125.55 -4.953)" fill="#002245"/><path d="M205.434,176.974a4.079,4.079,0,0,0,.5-8.127V154.065a.5.5,0,0,0-1,0v14.782a4.079,4.079,0,0,0,.5,8.127Zm0-7.161a3.08,3.08,0,1,1-3.079,3.079,3.084,3.084,0,0,1,3.079-3.079Z" transform="translate(-194.964 -141.036)" fill="#002245"/><path d="M344.791,71.723H342a.5.5,0,1,0,0,1h2.789a.5.5,0,1,0,0-1Z" transform="translate(-323.296 -66.094)" fill="#002245"/><path d="M344.791,117.327H342a.5.5,0,1,0,0,1h2.789a.5.5,0,1,0,0-1Z" transform="translate(-323.296 -107.853)" fill="#002245"/><path d="M344.791,162.939H342a.5.5,0,1,0,0,1h2.789a.5.5,0,1,0,0-1Z" transform="translate(-323.296 -149.62)" fill="#002245"/></g></svg>