<svg xmlns="http://www.w3.org/2000/svg" xmlns:xlink="http://www.w3.org/1999/xlink" width="107" height="107" viewBox="0 0 107 107"><defs><filter id="a" x="0" y="0" width="107" height="107" filterUnits="userSpaceOnUse"><feOffset dy="3" input="SourceAlpha"/><feGaussianBlur stdDeviation="3" result="b"/><feFlood flood-opacity="0.161"/><feComposite operator="in" in2="b"/><feComposite in="SourceGraphic"/></filter></defs><g transform="translate(-276.025 -3313.202)"><g transform="translate(-31.025 -1548.798)"><g transform="matrix(1, 0, 0, 1, 307.05, 4862)" filter="url(#a)"><circle cx="44.5" cy="44.5" r="44.5" transform="translate(9 6)" fill="#9ec9ff"/></g></g><g transform="translate(303.499 3300.801)"><g transform="translate(0.746 41.592)"><path d="M56.248,51.361V85.95a3.015,3.015,0,0,1-3.015,3.015H10.517A3.015,3.015,0,0,1,7.5,85.95V51.361a3.015,3.015,0,0,1,3.014-3.015H53.233A3.015,3.015,0,0,1,56.248,51.361Z" transform="translate(-7.503 -48.346)" fill="#e5e9ea"/><path d="M56.248,51.361V56.5H7.5V51.361a3.015,3.015,0,0,1,3.014-3.015H53.233A3.015,3.015,0,0,1,56.248,51.361Z" transform="translate(-7.503 -48.346)" fill="#d1d1d1"/><rect width="40.787" height="24.987" transform="translate(3.979 11.653)" fill="#fa3f68"/><g transform="translate(3.283 2.189)"><circle cx="1.89" cy="1.89" r="1.89" transform="translate(0)" fill="#fa3f68"/><circle cx="1.89" cy="1.89" r="1.89" transform="translate(11.838)" fill="#47c97f"/><circle cx="1.89" cy="1.89" r="1.89" transform="translate(5.919)" fill="#fcb65f"/></g><rect width="28.849" height="3.371" transform="translate(15.917 33.269)" fill="#d1d1d1"/><rect width="13.828" height="3.371" transform="translate(3.979 33.269)" fill="#566368"/><path d="M211.741,225.14l-7.373-4.257a1.752,1.752,0,0,0-2.627,1.517v8.514a1.752,1.752,0,0,0,2.627,1.517l7.373-4.257A1.752,1.752,0,0,0,211.741,225.14Z" transform="translate(-182.418 -203.505)" fill="#fff"/></g><g transform="translate(0 40.846)"><path d="M46.477,40.846H3.761A3.765,3.765,0,0,0,0,44.607v5.135s0,0,0,.007,0,0,0,.007V70.841a.746.746,0,0,0,1.492,0V50.5H48.746V79.2a2.272,2.272,0,0,1-2.269,2.269H3.761A2.271,2.271,0,0,1,1.493,79.2V73.328a.746.746,0,0,0-1.492,0V79.2a3.765,3.765,0,0,0,3.76,3.761H46.477A3.766,3.766,0,0,0,50.238,79.2V44.607A3.766,3.766,0,0,0,46.477,40.846ZM1.493,49v-4.4a2.271,2.271,0,0,1,2.268-2.269H46.477a2.272,2.272,0,0,1,2.269,2.269V49Z" transform="translate(0 -40.846)"/><path d="M35.639,62.847a2.636,2.636,0,1,0,2.636,2.636A2.639,2.639,0,0,0,35.639,62.847Zm0,3.78a1.144,1.144,0,1,1,1.144-1.144A1.145,1.145,0,0,1,35.639,66.627Z" transform="translate(-29.72 -60.658)"/><path d="M154.642,62.847a2.636,2.636,0,1,0,2.636,2.636A2.639,2.639,0,0,0,154.642,62.847Zm0,3.78a1.144,1.144,0,1,1,1.144-1.144A1.145,1.145,0,0,1,154.642,66.627Z" transform="translate(-136.884 -60.658)"/><path d="M95.14,62.847a2.636,2.636,0,1,0,2.636,2.636A2.639,2.639,0,0,0,95.14,62.847Zm0,3.78a1.144,1.144,0,1,1,1.144-1.144A1.145,1.145,0,0,1,95.14,66.627Z" transform="translate(-83.302 -60.658)"/><path d="M197.988,213.471a2.5,2.5,0,0,0-3.747,2.163v8.514a2.492,2.492,0,0,0,3.747,2.163l7.373-4.257a2.5,2.5,0,0,0,0-4.326Zm6.627,7.291-7.373,4.257a1.006,1.006,0,0,1-1.508-.871v-8.514a1,1,0,0,1,1.508-.871l7.373,4.257a1.005,1.005,0,0,1,0,1.741Z" transform="translate(-174.918 -195.993)"/><path d="M81.536,164.4a.746.746,0,0,0,.746-.746V158.73a.746.746,0,0,0-.746-.746H40.749a.746.746,0,0,0-.746.746v24.987a.746.746,0,0,0,.746.746H81.536a.746.746,0,0,0,.746-.746V166.141a.746.746,0,1,0-1.492,0V179.6H41.5V159.476H80.79v4.178A.746.746,0,0,0,81.536,164.4Zm-.746,18.57H55.323v-1.879H80.79Zm-26.959-1.879v1.879H41.5v-1.879Z" transform="translate(-36.023 -146.331)"/></g></g></g></svg>