<svg xmlns="http://www.w3.org/2000/svg" width="60.331" height="60" viewBox="0 0 60.331 60"><g transform="translate(-2 -2)"><path fill="#e6e7e8" d="M47 11v46a4 4 0 0 1-4 4H7a4 4 0 0 1-4-4V7a4 4 0 0 1 4-4h32v6a2.006 2.006 0 0 0 2 2Zm7.51 18.84a4 4 0 0 1 5.65 5.65l-1.41 1.42-5.66-5.66Z"/><path fill="#ffa733" d="m53.09 31.25 5.66 5.66-2.12 2.12-2.83-2.83-2.83-2.83Z"/><path fill="#d8d7da" d="M47 41.35v11.3l-1.81 1.81-.7.71-3.54.71L38.83 58A2 2 0 0 1 36 55.17l2.12-2.12.71-3.54.71-.7Z"/><path fill="#787680" d="M38.95 53.88 36.83 56A2 2 0 0 1 34 53.17l2.12-2.12Z"/><path fill="#00ccb3" d="M50.97 33.37 47 37.35l-9.46 9.46 2.82 2.83h.01L47 43l6.8-6.8Z"/><path fill="#898890" d="m43.19 52.46-.7.71-3.54.71-2.83-2.83.71-3.54.71-.7 2.82 2.83h.01Z"/><path fill="#00b39d" d="M53.8 36.2 47 43l-6.63 6.64 2.82 2.82 3.81-3.8 9.63-9.63Z"/><path fill="#d8d7da" d="M40.5 36.5a1.4 1.4 0 0 0-.41-.3l1.47-1.47 2.82-2.83-9.89-9.9-2.83 2.83-2.36.47L26 22h-4.24l-2.83-2.83-9.9 9.9 2.83 2.83 4.95 4.95a2 2 0 0 0 1.41 3.41 2.02 2.02 0 0 0 1.42-.58 2 2 0 1 0 2.82 2.83 1.99 1.99 0 0 0 0 2.82 2.03 2.03 0 0 0 1.42.59 2 2 0 0 0 1.41-.59 2 2 0 0 0 2.83 2.83l.75-.75a2 2 0 0 0 .31.4l1.42 1.41a1.994 1.994 0 1 0 2.82-2.82 2 2 0 0 0 2.83 0 2.03 2.03 0 0 0 .59-1.42 2 2 0 0 0-.59-1.41 2 2 0 1 0 2.83-2.83 2 2 0 0 0 2.83-2.83Z"/><path fill="#ffb655" d="M37.08 38.74a2 2 0 1 1-2.83 2.83l-1.41-1.42a2 2 0 0 1 2.83-2.83Z"/><path fill="#ffb655" d="M39.91 35.91a2 2 0 1 1-2.83 2.83l-1.41-1.42a1.98 1.98 0 0 1 0-2.82 1.95 1.95 0 0 1 2.42-.3 1.4 1.4 0 0 1 .41.3Zm-5.66 5.66a2 2 0 0 1 .59 1.41 2.03 2.03 0 0 1-.59 1.42 2 2 0 0 1-2.83 0l-1.41-1.42a2 2 0 1 1 2.83-2.83Z"/><path fill="#ffb655" d="M31.42 44.4a1.994 1.994 0 1 1-2.82 2.82l-1.42-1.41a2 2 0 0 1-.31-.4 2 2 0 0 1 3.14-2.43Z"/><path fill="#ffc477" d="M23.29 43.33a2 2 0 0 1-1.41.59 2.03 2.03 0 0 1-1.42-.59 1.99 1.99 0 0 1 0-2.82 2 2 0 0 1-2.82-2.83 2.02 2.02 0 0 1-1.42.58 2 2 0 0 1-1.41-3.41l2.12-2.12.71-.71 4.15-4.16a3.99 3.99 0 0 0 3.27-1.14l4.24 4.24a2 2 0 0 0 2.83-2.83L27.3 23.3l2.36-.47 9.9 9.9-1.47 1.47a1.95 1.95 0 0 0-2.42.3 1.98 1.98 0 0 0 0 2.82 2 2 0 0 0-2.83 2.83 2 2 0 1 0-2.83 2.83 2 2 0 0 0-3.14 2.43l-.75.75a2 2 0 0 1-2.83-2.83"/><path fill="#3d9ae2" d="m29.656 22.808 2.828-2.828 9.9 9.899-2.829 2.828ZM7.03 27.07l9.9-9.9L19.76 20l-9.9 9.9Z"/><path fill="#ffb655" d="m21.79 27.86-4.15 4.16-.71.71-2.12 2.12-4.95-4.95 9.9-9.9H24l3.3 3.3 4.83 4.83a2 2 0 1 1-2.83 2.83l-4.24-4.24a3.99 3.99 0 0 1-3.27 1.14"/><path fill="#bcbec0" d="M47 11h-6a2.006 2.006 0 0 1-2-2V3Z"/><path d="M46 57a3 3 0 0 1-3 3H7a3 3 0 0 1-3-3V7a3 3 0 0 1 3-3h31v5a3 3 0 0 0 3 3h5v21h2V11a1 1 0 0 0-.293-.707l-8-8A1 1 0 0 0 39 2H7a5.006 5.006 0 0 0-5 5v50a5.006 5.006 0 0 0 5 5h36a5.006 5.006 0 0 0 5-5v-4h-2ZM40 9V5.414L44.586 10H41a1 1 0 0 1-1-1"/><path d="M8 8h2v2H8Zm4 0h6v2h-6Zm-4 4h10v2H8Zm52.87 17.13a5.006 5.006 0 0 0-7.071 0L36.121 46.808a1 1 0 0 0-.273.51l-.648 3.239-1.907 1.907a3 3 0 1 0 4.242 4.243l1.908-1.907 3.239-.648a1 1 0 0 0 .51-.274L60.87 36.2a5.006 5.006 0 0 0 0-7.07M37.207 50.722l.471-2.358 3.957 3.957-2.357.472Zm1.742-3.914L50.97 34.786l1.415 1.414-12.021 12.022Zm2.829 2.828L53.8 37.615l1.414 1.415-12.022 12.02Zm10.607-16.264.707-.707 4.243 4.243-.708.708ZM36.12 55.293a1.023 1.023 0 0 1-1.413 0 1 1 0 0 1 0-1.415l1.414-1.414 1.415 1.415Zm23.336-20.506-.707.707-4.243-4.243.707-.707a3 3 0 1 1 4.243 4.243M43.09 30.61a1.01 1.01 0 0 0 0-1.42l-9.9-9.9a1.034 1.034 0 0 0-1.41 0l-2.62 2.62-1.53.3-2.92-2.92A1.03 1.03 0 0 0 24 19h-3.83l-2.53-2.54a1.01 1.01 0 0 0-1.42 0l-9.9 9.9a1.01 1.01 0 0 0 0 1.42l7.2 7.2a2.973 2.973 0 0 0 2.55 4.27 2.9 2.9 0 0 0 .86 1.96 2.96 2.96 0 0 0 1.96.87 2.983 2.983 0 0 0 2.83 2.83 3 3 0 0 0 5.11 1.96l1.06 1.06a2.994 2.994 0 0 0 4.24 0 2.9 2.9 0 0 0 .86-1.97 2.944 2.944 0 0 0 2.83-2.82 2.963 2.963 0 0 0 2.83-2.83 2.993 2.993 0 0 0 1.97-5.11l-1.06-1.06ZM8.44 27.07l8.49-8.48L18.34 20l-8.48 8.49Zm2.83 2.83 8.9-8.9h3.42l7.83 7.84a.98.98 0 0 1 0 1.41 1.014 1.014 0 0 1-1.41 0l-4.24-4.24a1.037 1.037 0 0 0-1.42 0 3.066 3.066 0 0 1-4.24 0l-1.41 1.41a5 5 0 0 0 1.23.89l-5.12 5.13Zm15.2 12.37a3.01 3.01 0 0 0-.76 2.89l-.3.29a.97.97 0 0 1-.71.29.95.95 0 0 1-.7-.29.993.993 0 0 1-.01-1.4.01.01 0 0 0 .01-.01l2.83-2.82v-.01l-1.42-1.41-2.83 2.83c-.01 0-.01 0-.01.01a1.03 1.03 0 0 1-1.4-.01 1.014 1.014 0 0 1 0-1.42L24 38.38l-1.41-1.41-2.83 2.83a1 1 0 1 1-1.42-1.42l2.83-2.82-1.41-1.42-2.83 2.83a1.027 1.027 0 0 1-1.42 0 1 1 0 0 1 0-1.41l6.67-6.68c.02 0 .03.01.05.01a4.95 4.95 0 0 0 2.76-.83l3.61 3.61a3.075 3.075 0 0 0 4.24 0 3 3 0 0 0 .06-4.18l5.25 5.24-.3.29a3.01 3.01 0 0 0-2.89.77 2.9 2.9 0 0 0-.86 1.96 2.96 2.96 0 0 0-2.83 2.86 2.907 2.907 0 0 0-2.83 2.8 3.05 3.05 0 0 0-1.97.86m4.25 4.25a1.037 1.037 0 0 1-1.42 0l-1.41-1.42a1 1 0 1 1 1.41-1.41l1.42 1.41a1.01 1.01 0 0 1 0 1.42m2.83-2.83a1.01 1.01 0 0 1-1.42 0l-1.41-1.42a1 1 0 1 1 1.41-1.41l1.42 1.41a1.014 1.014 0 0 1 0 1.42m2.82-2.83a1.014 1.014 0 0 1-1.41 0l-1.41-1.42a.96.96 0 0 1-.3-.7 1.007 1.007 0 0 1 1-1 1.02 1.02 0 0 1 .71.29l1.41 1.42a1 1 0 0 1 0 1.41m2.83-2.83a1 1 0 0 1-1.41 0l-1.42-1.41a1.01 1.01 0 0 1 0-1.42 1.04 1.04 0 0 1 .71-.29 1.02 1.02 0 0 1 .71.29l1.41 1.42a.98.98 0 0 1 0 1.41m-8.13-15.2 1.42-1.42 8.48 8.49-1.41 1.41ZM21 54h10v2H21ZM8 44h8v2H8Zm0 4h10v2H8Zm0-8h6v2H8Z"/></g></svg>