<svg xmlns="http://www.w3.org/2000/svg" width="65" height="65" viewBox="0 0 65 65"><g transform="translate(-1020 -3825.243)"><circle cx="32.5" cy="32.5" r="32.5" fill="#9ec9ff" transform="translate(1020 3825.243)"/><g transform="translate(1020.434 3834.116)"><g transform="translate(13.29 .597)"><path fill="#cbe5e8" d="m31.912 7.811-11.879 3.342V2.346l11.879 3.342a1.1 1.1 0 0 1 0 2.123"/><path fill="#678d98" d="M20.033 39.573h-2.8V1.325A1.325 1.325 0 0 1 18.561 0h.146a1.325 1.325 0 0 1 1.325 1.325v38.248Z"/><path fill="#ffcebf" d="M22.766 13.624a1.6 1.6 0 0 0-1.166-.51h-4.334a1.613 1.613 0 0 0-1.613 1.613v2.386a1.613 1.613 0 0 0 1.613 1.613H21.6a1.6 1.6 0 0 0 1.166-.51 1.6 1.6 0 0 1 1.166-.51h3.511v-3.571h-3.511a1.6 1.6 0 0 1-1.166-.511m0 11.282a1.6 1.6 0 0 0-1.166-.51h-4.334a1.613 1.613 0 0 0-1.613 1.613v2.385a1.613 1.613 0 0 0 1.613 1.612H21.6a1.6 1.6 0 0 0 1.166-.51 1.6 1.6 0 0 1 1.166-.51h3.511v-3.57h-3.511a1.6 1.6 0 0 1-1.166-.51"/><path fill="#f89580" d="M14.786 19.192a1.6 1.6 0 0 1 1.166-.51h4.334a1.613 1.613 0 0 1 1.613 1.613v2.385a1.613 1.613 0 0 1-1.613 1.613h-4.334a1.6 1.6 0 0 1-1.166-.51 1.6 1.6 0 0 0-1.166-.51h-3.511v-3.571h3.511a1.6 1.6 0 0 0 1.166-.51m0 11.325a1.6 1.6 0 0 1 1.166-.51h4.334a1.613 1.613 0 0 1 1.613 1.613v2.385a1.613 1.613 0 0 1-1.613 1.613h-4.334a1.6 1.6 0 0 1-1.166-.51 1.6 1.6 0 0 0-1.166-.51h-3.511v-3.571h3.511a1.6 1.6 0 0 0 1.166-.51"/><path fill="#ffc344" d="M37.027 18.699H25.704a.524.524 0 0 1-.524-.524v-4.509a.524.524 0 0 1 .524-.524h11.324a.524.524 0 0 1 .524.524v4.509a.524.524 0 0 1-.525.524"/><path fill="#fe5ca7" d="M37.027 29.98H25.704a.524.524 0 0 1-.524-.524v-4.509a.524.524 0 0 1 .524-.524h11.324a.524.524 0 0 1 .524.524v4.509a.524.524 0 0 1-.525.524"/><path fill="#26a6fe" d="M.524 24.266h11.323a.524.524 0 0 0 .524-.524v-4.509a.524.524 0 0 0-.524-.524H.524a.524.524 0 0 0-.524.524v4.509a.524.524 0 0 0 .524.524"/><path fill="#314dc9" d="M.524 35.591h11.323a.524.524 0 0 0 .524-.524v-4.509a.524.524 0 0 0-.524-.524H.524a.524.524 0 0 0-.524.524v4.509a.524.524 0 0 0 .524.524"/><path fill="#feb237" d="M37.027 13.141h-1.865v2.645a.524.524 0 0 1-.524.524h-9.459v1.864a.524.524 0 0 0 .524.524h11.325a.524.524 0 0 0 .524-.524v-4.509a.524.524 0 0 0-.525-.524"/><path fill="#fe3d97" d="M37.027 24.423h-1.865v2.645a.524.524 0 0 1-.524.524h-9.459v1.865a.524.524 0 0 0 .524.524h11.325a.524.524 0 0 0 .524-.524v-4.509a.524.524 0 0 0-.525-.525"/><path fill="#0593fc" d="M11.847 18.708H9.983v2.649a.524.524 0 0 1-.524.524H0v1.864a.524.524 0 0 0 .524.524h11.324a.524.524 0 0 0 .524-.524v-4.509a.524.524 0 0 0-.524-.524Z"/><path fill="#2740b0" d="M11.847 30.033H9.983v2.645a.524.524 0 0 1-.524.524H0v1.864a.524.524 0 0 0 .524.524h11.324a.524.524 0 0 0 .524-.524v-4.509a.524.524 0 0 0-.524-.524Z"/></g><path d="M36.5 19.218a1 1 0 0 1 .728-.318h.658a1.123 1.123 0 0 0 1.114.993h11.318a1.123 1.123 0 0 0 1.121-1.121v-4.51a1.123 1.123 0 0 0-1.121-1.121H38.995a1.123 1.123 0 0 0-1.114.993h-.658a1 1 0 0 1-.728-.318 2.2 2.2 0 0 0-1.6-.7h-.97V12.2l11.439-3.217a1.7 1.7 0 0 0 0-3.273l-8.649-2.433a.6.6 0 1 0-.324 1.15L45.04 6.86a.505.505 0 0 1 0 .973l-11.12 3.128V1.922A1.924 1.924 0 0 0 32 0h-.146a1.925 1.925 0 0 0-1.922 1.922v11.284a2.21 2.21 0 0 0-1.582 2.118v2.385a2.2 2.2 0 0 0 .274 1.064 2.2 2.2 0 0 0-.983.61 1 1 0 0 1-.728.318h-.658a1.123 1.123 0 0 0-1.114-.993H13.814a1.123 1.123 0 0 0-1.121 1.121v4.509a1.123 1.123 0 0 0 1.121 1.121h2.936a.6.6 0 0 0 0-1.194h-2.863V19.9h11.178v4.363h-5.448a.6.6 0 1 0 0 1.194h5.521a1.123 1.123 0 0 0 1.114-.993h.658a1 1 0 0 1 .728.318 2.2 2.2 0 0 0 1.058.631 2.2 2.2 0 0 0-.349 1.19v2.385a2.2 2.2 0 0 0 .295 1.1 2.2 2.2 0 0 0-1 .616 1 1 0 0 1-.728.318h-.658a1.123 1.123 0 0 0-1.114-.993H13.814a1.123 1.123 0 0 0-1.121 1.121v4.509a1.123 1.123 0 0 0 1.121 1.121h11.324a1.123 1.123 0 0 0 1.114-.993h.658a1 1 0 0 1 .728.318 2.2 2.2 0 0 0 1.6.7h.687v3.359a.6.6 0 0 0 .6.6h2.8a.6.6 0 0 0 .6-.6v-3.379a2.21 2.21 0 0 0 1.861-2.185v-2.384a2.2 2.2 0 0 0-.295-1.1 2.2 2.2 0 0 0 1-.616 1 1 0 0 1 .728-.318h.658a1.123 1.123 0 0 0 1.114.993h11.327a1.123 1.123 0 0 0 1.121-1.121v-4.51a1.123 1.123 0 0 0-1.121-1.121H38.995a1.123 1.123 0 0 0-1.114.993h-.658a1 1 0 0 1-.728-.318 2.2 2.2 0 0 0-1.058-.631 2.2 2.2 0 0 0 .349-1.19v-2.385a2.2 2.2 0 0 0-.274-1.064 2.2 2.2 0 0 0 .983-.61Zm2.573-4.883h11.172V18.7H39.068ZM31.852 1.194H32a.73.73 0 0 1 .728.728v11.192h-1.6V1.922a.73.73 0 0 1 .728-.728Zm-4.943 22.078h-.65V20.9h.65a2.2 2.2 0 0 0 1.6-.7 1 1 0 0 1 .728-.318h.88c.141.028 3.746.043 3.746.043a1.02 1.02 0 0 1 .724.972v2.385a1.017 1.017 0 0 1-1.015 1.015h-4.33a1 1 0 0 1-.728-.318 2.2 2.2 0 0 0-1.605-.707m-1.844 12.319H13.887v-4.364h11.178Zm6.059 3.983v-2.763h1.6v2.762Zm3.467-4.974a1.017 1.017 0 0 1-1.015 1.015h-4.334a1 1 0 0 1-.728-.318 2.2 2.2 0 0 0-1.6-.7h-.65v-2.376h.65a2.2 2.2 0 0 0 1.6-.7 1 1 0 0 1 .728-.318h4.334a1.017 1.017 0 0 1 1.015 1.015Zm4.476-8.985h11.178v4.365H39.068Zm-1.845.993h.65v2.377h-.65a2.2 2.2 0 0 0-1.6.7 1 1 0 0 1-.728.318h-4.337a1.017 1.017 0 0 1-1.015-1.015v-2.382a1.017 1.017 0 0 1 1.015-1.015h4.333a1 1 0 0 1 .728.318 2.2 2.2 0 0 0 1.605.701Zm-1.6-8.2a1 1 0 0 1-.728.318l-4.625-.043a1.02 1.02 0 0 1-.724-.972v-2.387a1.017 1.017 0 0 1 1.015-1.015h4.33a1 1 0 0 1 .728.318 2.2 2.2 0 0 0 1.6.7h.65v2.377h-.65a2.2 2.2 0 0 0-1.6.7Z"/></g></g></svg>