<svg xmlns="http://www.w3.org/2000/svg" width="108.176" height="108.176" viewBox="0 0 108.176 108.176"><defs><filter id="a" width="108.176" height="108.176" x="0" y="0" filterUnits="userSpaceOnUse"><feOffset dy="3"/><feGaussianBlur result="b" stdDeviation="3"/><feFlood flood-opacity=".412"/><feComposite in2="b" operator="in"/><feComposite in="SourceGraphic"/></filter></defs><g transform="translate(-1207.892 -416.825)"><g filter="url(#a)" transform="translate(1207.892 416.825)"><g fill="#d3e6fe" transform="translate(9 6)"><path d="M45.088 88.176a42.8 42.8 0 0 1-16.771-3.385 43 43 0 0 1-13.697-9.235 43 43 0 0 1-9.235-13.697A42.8 42.8 0 0 1 2 45.088 42.95 42.95 0 0 1 14.62 14.62a43 43 0 0 1 13.697-9.235A42.8 42.8 0 0 1 45.087 2a42.95 42.95 0 0 1 30.468 12.62 43 43 0 0 1 9.236 13.697 42.8 42.8 0 0 1 3.385 16.77 42.95 42.95 0 0 1-12.62 30.468 43 43 0 0 1-13.697 9.236 42.8 42.8 0 0 1-16.771 3.385"/><path fill="#fff" d="M45.088 4a40.96 40.96 0 0 0-29.054 12.034A40.96 40.96 0 0 0 4 45.088a40.96 40.96 0 0 0 12.034 29.054 40.96 40.96 0 0 0 29.054 12.034 40.96 40.96 0 0 0 29.054-12.034 40.96 40.96 0 0 0 12.034-29.054 40.96 40.96 0 0 0-12.034-29.054A40.96 40.96 0 0 0 45.087 4m0-4c24.901 0 45.088 20.187 45.088 45.088S69.989 90.176 45.088 90.176 0 69.989 0 45.088 20.187 0 45.088 0"/></g></g><g transform="translate(1234.473 440.397)"><path fill="#6ecbd6" fill-rule="evenodd" d="M21.94.834h20.749a9.358 9.358 0 0 1 0 18.717H21.94a9.358 9.358 0 1 1 0-18.717"/><path fill="#aadee9" fill-rule="evenodd" d="M21.94.834h20.75a9.353 9.353 0 0 1 8.55 13.15 9.3 9.3 0 0 1-3.8.81H26.69a9.346 9.346 0 0 1-8.55-13.152 9.3 9.3 0 0 1 3.8-.808"/><path fill="#b9d9f2" fill-rule="evenodd" d="m54.152 31.892-2.4 10.473a3.39 3.39 0 0 1-3.284 2.75H33.807c-1.583 0-2.549.114-2.767-.867l-3.368-13.32 25.325-.024c.962-.001 1.295.369 1.155.988"/><path fill="#e5f0fa" fill-rule="evenodd" d="M54.149 31.892 51.785 42.2A25.7 25.7 0 0 1 41.1 39.591c-4.74-2.243-8.347-5.459-10.133-8.667l22.028-.02c.964-.001 1.297.369 1.154.988"/><path fill="#63cbe7" d="M47.324 44.133c1.006 0 1.143 2.478.138 2.478h-15.4c-1.886 0-2.45 2.491-.154 2.491h10.843c1.006 0 1.129 2.316.125 2.316H30.927a3.424 3.424 0 0 1-2.417-5.84c.823-.827 2.276-1.059 1.8-2.679L27.29 32.54a3.214 3.214 0 0 0-3.12-2.344h-2.468c-1.4 0-1.318-2.135.121-2.135h2.679a4.93 4.93 0 0 1 4.643 3.54l3.509 11.017a2 2 0 0 0 1.889 1.513h12.778Z"/><g fill-rule="evenodd" transform="translate(.83 4.733)"><path fill="#999" d="M29.999 43.893a2.789 2.789 0 1 1-2.787 2.791 2.79 2.79 0 0 1 2.787-2.791m12.045 0a2.789 2.789 0 1 1-2.787 2.791 2.79 2.79 0 0 1 2.787-2.791"/><path fill="#ce2027" d="M7.037 30.113h8.731a7.06 7.06 0 0 1 7.037 7.037v7.033H0v-7.037a7.06 7.06 0 0 1 7.037-7.033"/><path fill="#ed2024" d="M7.037 30.113h8.731a7.06 7.06 0 0 1 7.037 7.037v3.022a12.9 12.9 0 0 1-8.347 1.433C8.084 40.748 2.89 36.32 2.684 31.633a6.98 6.98 0 0 1 4.353-1.52"/><path fill="#f9b5b2" d="M7.914 30.023c.414-.77.31-2.5.31-7.41h6.78c0 4.905-.1 6.718.266 7.5-2.132 2.31-5.275 2.472-7.356-.09"/><path fill="#f9b5b2" d="M17.392 18.942a15.7 15.7 0 0 1-.676 4.341q-.15.425-.3.83c-2.047 5.019-6.788 5.49-9.34 1.413-1.5-1.825-2.309-6.916-1.022-10.416 5.309-3.742 6.758-2.619 10.876 0a26 26 0 0 1 .462 3.832"/><path fill="#fed640" d="m39.481 0 1.778 3.584 3.96.585-2.861 2.8.669 3.944-3.546-1.853-3.544 1.853.665-3.944-2.857-2.8 3.957-.585Z"/><path fill="#f8ed3f" d="m39.48 0 1.779 3.584 3.96.585-2.862 2.8.192 1.129a8.6 8.6 0 0 1-5.325-4.444l.478-.071Z"/><path fill="#fed640" d="m23.487 0 1.779 3.584 3.957.585-2.857 2.8.669 3.944-3.547-1.853-3.546 1.853.669-3.944-2.858-2.8 3.958-.585Z"/><path fill="#f8ed3f" d="m23.487 0 1.779 3.584 3.957.585-2.857 2.8.2 1.193a8.6 8.6 0 0 1-5.325-4.508l.467-.071Z"/><path fill="#b3782c" d="M5.444 20.098c-.013-.4-.02-.76-.017-1.14 0-.508.451-.75.931-.925a13.84 13.84 0 0 1 10.093-.168c.467.174.9.4.925.9a9.6 9.6 0 0 1-.084 1.695c.938.326 1.486-.1 2.091-.887a2.3 2.3 0 0 0 .074-2.7 3.305 3.305 0 0 0 .02-6.284 3.207 3.207 0 0 0-5.383-2.219 3.039 3.039 0 0 0-5.668.286 2.7 2.7 0 0 0-5.107 1.4 2.541 2.541 0 0 0-.669 4.882 2.826 2.826 0 0 0-.76 3.328 3.76 3.76 0 0 0 3.554 1.832"/><path fill="#bd8e41" d="M5.989 18.192a3 3 0 0 1 .37-.158 13.84 13.84 0 0 1 10.096-.168c.467.174.9.4.925.9a9.6 9.6 0 0 1-.084 1.695c.938.326 1.486-.1 2.091-.887a2.3 2.3 0 0 0 .074-2.7 3.305 3.305 0 0 0 .753-5.937 3.2 3.2 0 0 0-2.45.841 3.039 3.039 0 0 0-5.668.286 2.7 2.7 0 0 0-5.106 1.4 2.543 2.543 0 0 0-1 4.722Z"/></g><path d="M7.084 24.236c.031 1.724.487 4.3 1.466 5.494a1 1 0 0 1 .064.088c1.288 2.061 3.443 3.073 5.51 1.779 2-1.254 2.965-4.182 3.177-6.469a12 12 0 0 0 .081-1.567 1.5 1.5 0 0 0-.39-.192 13.1 13.1 0 0 0-9.525.174 1.4 1.4 0 0 0-.383.185c-.003.173-.003.338 0 .508m-1.567 1.426a4.59 4.59 0 0 1-3.553-2.32 3.66 3.66 0 0 1 .259-3.483 3.371 3.371 0 0 1 1.123-5.732 3.541 3.541 0 0 1 5.783-2.212 3.87 3.87 0 0 1 2.626-1.429A10.217 10.217 0 0 1 21.938 0h20.753a10.189 10.189 0 0 1 0 20.377H22.932a4.1 4.1 0 0 1-1.55 1.634 3.14 3.14 0 0 1-.511 2.794 2.8 2.8 0 0 1-2.038 1.325 13.6 13.6 0 0 1-.81 3 .4.4 0 0 1-.027.064 9.3 9.3 0 0 1-1.349 2.32c0 .867.011 1.53.044 2.047q.019.262.044.454a7.886 7.886 0 0 1 7.729 7.865v7.037a.83.83 0 0 1-.83.83H.83a.83.83 0 0 1-.83-.83V41.88a7.89 7.89 0 0 1 7.867-7.867h.253a3 3 0 0 0 .053-.4c.04-.4.057-.918.064-1.59a8 8 0 0 1-1-1.281 7.5 7.5 0 0 1-1.2-2.5 14.5 14.5 0 0 1-.514-2.58Zm7.904-14.982a3.87 3.87 0 0 1 1.745 1.233 4.03 4.03 0 0 1 5.2 1.167l.185-1.1L18 9.492a.831.831 0 0 1 .46-1.413l3.53-.521 1.583-3.194a.831.831 0 0 1 1.486 0l1.583 3.194 3.53.521a.831.831 0 0 1 .428 1.446l-2.52 2.461.6 3.524a.829.829 0 0 1-1.248.843l-3.117-1.631-1.94 1.015a4.12 4.12 0 0 1 1.015 2.978h19.3a8.528 8.528 0 0 0 0-17.056H21.937a8.56 8.56 0 0 0-8.516 9.021M5.426 23.974a1.65 1.65 0 0 1 .581-1.506 2.8 2.8 0 0 1 .9-.48 14.73 14.73 0 0 1 10.667-.168c.746.282 1.426.722 1.459 1.647.011.3.011.6 0 .891a2.7 2.7 0 0 0 .524-.559 1.47 1.47 0 0 0 .043-1.728.826.826 0 0 1 .464-1.264 2.471 2.471 0 0 0 .678-4.336 2.03 2.03 0 0 1-1.267-1.166 2.377 2.377 0 0 0-3.991-1.593.826.826 0 0 1-1.318-.273 2.209 2.209 0 0 0-4.118.209.831.831 0 0 1-1.539.1 1.876 1.876 0 0 0-3.187-.218 1.86 1.86 0 0 0-.343 1.213.83.83 0 0 1-.737.878 1.711 1.711 0 0 0-.451 3.288.83.83 0 0 1 .222 1.4 2 2 0 0 0-.538 2.353 2.92 2.92 0 0 0 1.951 1.312M25.352 8.68l-1.035-2.084L23.3 8.644a.84.84 0 0 1-.639.495l-2.307.339 1.64 1.607a.83.83 0 0 1 .262.75l-.39 2.3 2.067-1.079a.82.82 0 0 1 .766 0l2.067 1.079-.39-2.3a.83.83 0 0 1 .235-.726l1.666-1.629-2.307-.339a.82.82 0 0 1-.618-.461m15.7-4.316 1.583 3.194 3.53.521a.83.83 0 0 1 .427 1.446l-2.514 2.461.6 3.524a.828.828 0 0 1-1.248.843l-3.117-1.631-3.167 1.658a.826.826 0 0 1-1.2-.867l.6-3.524-2.551-2.494a.833.833 0 0 1 .46-1.413l3.53-.521 1.583-3.194a.83.83 0 0 1 1.485-.002Zm.294 4.316L40.31 6.597 39.3 8.644a.84.84 0 0 1-.642.495l-2.307.339 1.64 1.607a.81.81 0 0 1 .262.75l-.39 2.3 2.067-1.079a.82.82 0 0 1 .766 0l2.067 1.079-.39-2.3a.84.84 0 0 1 .227-.727l1.672-1.628-2.3-.339a.82.82 0 0 1-.626-.461M5.316 48.09v-5.285a.83.83 0 0 1 1.66 0v5.285h10.509v-5.285a.83.83 0 0 1 1.66 0v5.285H22.8v-6.21a6.226 6.226 0 0 0-6.2-6.207h-.148a6 6 0 0 1-4.085 1.779 5.36 5.36 0 0 1-3.914-1.779h-.585a6.226 6.226 0 0 0-6.209 6.207v6.21Zm9.7-15.1a5.1 5.1 0 0 1-5.151.246 7 7 0 0 1-.172 1.332 3.71 3.71 0 0 0 5.473.04 8.7 8.7 0 0 1-.155-1.614Zm16.124 7.564a.7.7 0 0 1-.051-.154l-1.469-4.616a.83.83 0 0 1-.148-.46l-1.1-3.439a1 1 0 0 1-.033-.108 4.1 4.1 0 0 0-3.832-2.892h-2.681a.292.292 0 0 0-.282.407c.017.04.068.071.158.071h2.47a4.046 4.046 0 0 1 3.916 2.941l3.012 10.36c.68 2.327-1.2 2.683-2.01 3.5a2.53 2.53 0 0 0-.659 2.542 3.6 3.6 0 0 1 1.14-.682 2.38 2.38 0 0 1 2.492-2.244h15.29c-.121-.031-.024.037-.031-.306-.007-.315-.077-.218-.024-.511H34.544a2.84 2.84 0 0 1-2.676-2.095Zm1.365-1.16h3.106l-.965-3.251h-3.181Zm-1.567-4.911h3.214l-.817-2.74h-3.272Zm2.928-4.4a1.4 1.4 0 0 1 .172 0L53 30.073c1.325 0 2.256.7 1.96 2l-2.4 10.473a4.26 4.26 0 0 1-3.61 3.368 1.55 1.55 0 0 1-1.486 1.523h-15.4a.85.85 0 0 0-.773.387 3.6 3.6 0 0 1 1.332.444h8.466a3.618 3.618 0 1 1-1.735 3.973h-5a3.618 3.618 0 1 1-6.973-1.917 4.22 4.22 0 0 1 .541-5.338c.786-.786 1.853-.975 1.6-1.862L26.5 32.769a2.38 2.38 0 0 0-2.327-1.745H21.7a1.834 1.834 0 0 1-1.677-2.609 1.865 1.865 0 0 1 1.8-1.187H24.5a5.98 5.98 0 0 1 4.935 2.868Zm1.2 1.654.817 2.743h5.3v-2.75Zm7.776-.007v2.75h5.8l.821-2.756Zm8.348-.009-.821 2.76h2.344l.625-2.734c-.266-.043-1.792-.02-2.155-.02Zm1.14 4.42h-2.461l-.969 3.257h2.68ZM51.2 41.06h-2.795l-.68 2.293a1.62 1.62 0 0 1 .992.914 2.59 2.59 0 0 0 2.226-2.087Zm-5.188 2.239.665-2.239h-3.843v2.239Zm-4.838 0V41.06h-3.342l.667 2.239Zm-4.407 0L36.1 41.06h-3.072l.416 1.308a1.184 1.184 0 0 0 1.1.931Zm.572-3.9h3.836v-3.251h-4.8Zm5.5 0h4.337l.968-3.251h-5.31ZM39.352 50.58a3.6 3.6 0 0 1 .222-.656h-5.443a3.6 3.6 0 0 1 .222.656Zm4.908-.554a1.957 1.957 0 1 0 0 2.767 1.96 1.96 0 0 0 0-2.763Zm-12.045 0a1.957 1.957 0 1 0 0 2.767 1.96 1.96 0 0 0 0-2.763Zm15.171-4.246v-.007h-.077Z"/></g></g></svg>