<svg xmlns="http://www.w3.org/2000/svg" width="65" height="65" viewBox="0 0 65 65"><g transform="translate(-284.898 -3825.243)"><circle cx="32.5" cy="32.5" r="32.5" fill="#ff7630" transform="translate(284.898 3825.243)"/><g transform="translate(300.271 3840.615)"><circle cx="14.175" cy="14.175" r="14.175" fill="#ff6c5c" transform="translate(2.953 2.953)"/><circle cx="11.812" cy="11.812" r="11.812" fill="#e0e0e0" transform="translate(5.315 5.315)"/><circle cx="9.45" cy="9.45" r="9.45" fill="#ff6c5c" transform="translate(7.677 7.678)"/><circle cx="7.087" cy="7.087" r="7.087" fill="#e0e0e0" transform="translate(10.04 10.04)"/><circle cx="4.725" cy="4.725" r="4.725" fill="#ff6c5c" transform="translate(12.403 12.403)"/><path fill="#ffce4b" fill-rule="evenodd" d="M26.577 31.302a1.18 1.18 0 0 0 .346.835l1.181 1.181a1.18 1.18 0 0 0 1.67 0l3.544-3.544a1.18 1.18 0 0 0 0-1.67l-1.181-1.181a1.18 1.18 0 0 0-.835-.346h-3.544a1.18 1.18 0 0 0-1.181 1.181Z"/><path fill="#e0e0e0" fill-rule="evenodd" d="M27.758 26.577h.489L17.962 16.292a1.181 1.181 0 0 0-1.67 1.67l10.285 10.284v-.489a1.18 1.18 0 0 1 1.181-1.18"/><path fill="#ff6c5c" fill-rule="evenodd" d="m24.561 2.607 7.087 7.087a1.181 1.181 0 0 0 1.67-1.67L26.231.937a1.181 1.181 0 0 0-1.67 1.67"/><path fill="#ffce4b" fill-rule="evenodd" d="M20.671 13.583a1.67 1.67 0 0 0 2.364 0l1.068-1.068a6.5 6.5 0 0 1 3.071-1.725l4.483-1.087-7.1-7.1-1.094 4.479a6.5 6.5 0 0 1-1.724 3.065l-1.073 1.073a1.67 1.67 0 0 0 0 2.359Z"/><path fill="#ffce4b" fill-rule="evenodd" d="M25.15 11.665a6.5 6.5 0 0 0-1.047.85l-.722.722 2.361 2.363a1.181 1.181 0 0 0 1.671-1.669Z"/><path fill="#ff6c5c" fill-rule="evenodd" d="M22.59 9.107a6.5 6.5 0 0 1-.848 1.044l-1.073 1.073a1.67 1.67 0 0 0 0 2.359 1.67 1.67 0 0 0 2.364 0l1.068-1.068a6.5 6.5 0 0 1 1.047-.849Z"/><path fill="#ff926b" fill-rule="evenodd" d="M10.041 26.577a2.363 2.363 0 0 0-2.363-2.362H2.953a2.363 2.363 0 0 0-2.362 2.362v4.725a2.363 2.363 0 0 0 2.362 2.362h4.725a2.363 2.363 0 0 0 2.362-2.362Z"/><path fill="#e0e0e0" fill-rule="evenodd" d="M10.041 2.953A2.363 2.363 0 0 0 7.678.591H2.953A2.363 2.363 0 0 0 .591 2.953v7.088a2.363 2.363 0 0 0 2.362 2.362h4.725a2.363 2.363 0 0 0 2.362-2.362Z"/><path fill-rule="evenodd" d="M31.719 3.371 32.9 2.19a.591.591 0 0 0-.835-.835l-1.181 1.181a.591.591 0 0 0 .835.835m-1.008-1.599V.591a.591.591 0 0 0-1.181 0v1.181a.591.591 0 1 0 1.181 0m1.773 2.953h1.181a.591.591 0 0 0 0-1.181h-1.181a.591.591 0 0 0 0 1.181m-19.785 4.73a8.87 8.87 0 0 1 7.751-.542.593.593 0 0 0 .444-1.1 10.05 10.05 0 0 0-8.786.614.591.591 0 0 0 .592 1.022Zm-9.746 1.176h4.725a.591.591 0 0 0 0-1.181H2.953a.591.591 0 0 0 0 1.181m0-2.363h4.725a.591.591 0 0 0 0-1.181H2.953a.591.591 0 0 0 0 1.181m0-2.362h4.725a.591.591 0 0 0 0-1.181H2.953a.591.591 0 0 0 0 1.181m0-2.363h2.362a.591.591 0 0 0 0-1.181H2.953a.591.591 0 0 0 0 1.181"/><circle cx="2.362" cy="2.362" r="2.362" fill="#ffc29b" transform="translate(2.953 26.577)"/><path fill-rule="evenodd" d="M28.938 25.987a14.77 14.77 0 0 0 1.445-15.367l1.135-.275a1.772 1.772 0 0 0 2.219-2.738L26.65.52a1.772 1.772 0 0 0-2.731 2.23l-.275 1.127a14.8 14.8 0 0 0-11.437-.672.591.591 0 0 0 .395 1.114 13.6 13.6 0 0 1 10.755.736l-.289 1.184a12.4 12.4 0 0 0-12.435.325v-3.61A2.953 2.953 0 0 0 7.678 0H2.953A2.953 2.953 0 0 0 0 2.953v7.087a2.953 2.953 0 0 0 2.95 2.953 14.82 14.82 0 0 0 .254 9.056.591.591 0 0 0 1.114-.395 13.63 13.63 0 0 1-.133-8.662h1.247a12.42 12.42 0 0 0 1.131 10.631h-3.61A2.953 2.953 0 0 0 0 26.577V31.3a2.953 2.953 0 0 0 2.953 2.953h4.725a2.953 2.953 0 0 0 2.953-2.953v-.914a14.77 14.77 0 0 0 13.88-.474.59.59 0 1 0-.592-1.022 13.59 13.59 0 0 1-13.288.165v-1.362a12.4 12.4 0 0 0 13.923-.633l1.433 1.433V31.3a1.77 1.77 0 0 0 .519 1.253l1.181 1.181a1.77 1.77 0 0 0 2.505 0l3.544-3.544a1.77 1.77 0 0 0 0-2.505l-1.181-1.181a1.77 1.77 0 0 0-1.253-.519ZM1.181 29.53v1.77a1.77 1.77 0 0 0 1.772 1.772h4.725A1.77 1.77 0 0 0 9.45 31.3v-4.723a1.77 1.77 0 0 0-1.772-1.772H2.953a1.77 1.77 0 0 0-1.772 1.772v1.772h1.24a2.953 2.953 0 1 1 0 1.181Zm25.987 1.77v-3.541a.59.59 0 0 1 .591-.591H31.3a.6.6 0 0 1 .418.173l1.181 1.181a.59.59 0 0 1 0 .835L29.357 32.9a.59.59 0 0 1-.835 0l-1.181-1.181a.6.6 0 0 1-.173-.419M5.315 27.166a1.772 1.772 0 1 1-1.772 1.772 1.77 1.77 0 0 1 1.772-1.77ZM22.756 7.42a11.22 11.22 0 0 0-12.125.559v2.061a2.953 2.953 0 0 1-2.953 2.953h-.985a11.23 11.23 0 0 0 1.3 10.648 2.954 2.954 0 0 1 2.623 2.623 11.22 11.22 0 0 0 13.1-.05l-.847-.847a10.043 10.043 0 0 1-15.456-10.76.591.591 0 1 1 1.143.3 8.86 8.86 0 0 0 13.462 9.614l-.855-.855a7.678 7.678 0 1 1-.44-13.322l.608-.608a5.94 5.94 0 0 0 1.425-2.316m4.239 18.739-9.45-9.449a.591.591 0 1 0-.835.835L26.159 27a1.78 1.78 0 0 1 .836-.841M29.2 10.906l-1.891.459a6 6 0 0 0-1.2.431l1.716 1.717a1.772 1.772 0 1 1-2.507 2.5l-1.945-1.947a2.26 2.26 0 0 1-1.527.593h-.015a5.32 5.32 0 0 1 .087 4.755l.876.876a6.47 6.47 0 0 0 .824-3.167.591.591 0 1 1 1.181 0 7.64 7.64 0 0 1-1.143 4.03l.855.855a8.8 8.8 0 0 0 1.4-3.776.59.59 0 1 1 1.172.146 10 10 0 0 1-1.722 4.48l.847.847a11.17 11.17 0 0 0 2.134-6.582.591.591 0 0 1 1.181 0 12.34 12.34 0 0 1-2.471 7.426l.843.843a13.58 13.58 0 0 0 1.3-14.491Zm-9.3.348a6.5 6.5 0 1 0 .39 11.547l-.876-.876a5.316 5.316 0 1 1 .172-9.508 2.26 2.26 0 0 1 .314-1.164Zm1.119 7.263a4.13 4.13 0 1 0-2.506 2.506l-2.642-2.642a1.772 1.772 0 0 1 2.505-2.505Zm4.062-6.081a6 6 0 0 0-.565.5l-.3.3 1.943 1.945a.591.591 0 0 0 .836-.835Zm-2.925-1.868-1.073 1.073a1.08 1.08 0 0 0 0 1.524 1.08 1.08 0 0 0 1.529 0l1.068-1.068a7 7 0 0 1 .558-.5l-1.583-1.583a7 7 0 0 1-.495.554ZM2.949 11.812h4.725a1.77 1.77 0 0 0 1.772-1.772V2.953a1.77 1.77 0 0 0-1.772-1.772H2.949a1.77 1.77 0 0 0-1.772 1.772v7.087a1.77 1.77 0 0 0 1.776 1.772Zm22.287-.891-1.9-1.9a7 7 0 0 0 .706-1.791l.845-3.459 5.61 5.61-3.461.839a7 7 0 0 0-1.796.701Zm-.261-8.732a.591.591 0 0 1 .835-.835l7.087 7.087a.591.591 0 1 1-.835.835Z"/><path fill-rule="evenodd" d="M7.678 29.53h2.362v-1.181H7.678Z"/></g></g></svg>