<svg xmlns="http://www.w3.org/2000/svg" width="63.121" height="59.691" viewBox="0 0 63.121 59.691"><g transform="translate(0.046 -6.928)"><g transform="translate(-0.046 6.928)"><path d="M169.166,74.985,164.6,56.644a.511.511,0,0,0-.567-.37l-14.594,2.268a.55.55,0,0,0-.444.518l1.233,18.859a1,1,0,0,0,1.06.961h.123l16.961-2.638a1.008,1.008,0,0,0,.838-1.159A.1.1,0,0,1,169.166,74.985Z" transform="translate(-112.257 -44.103)" fill="#fc657e"/><path d="M104.542,62.7l-1.233-18.859a.492.492,0,0,1,.444-.518l6.607-1.035-1.43-5.719a.692.692,0,0,0-.74-.493L88.962,39.062a.65.65,0,0,0-.567.69L90,64.577a1.342,1.342,0,0,0,1.381,1.282.313.313,0,0,0,.148-.025L105.7,63.64a1.026,1.026,0,0,1-1.159-.838C104.567,62.777,104.542,62.753,104.542,62.7Z" transform="translate(-66.591 -28.887)" fill="#f5c84c"/><circle cx="4.265" cy="4.265" r="4.265" transform="translate(22.593 50.579)" fill="#29589f"/><circle cx="4.265" cy="4.265" r="4.265" transform="translate(43.646 50.579)" fill="#29589f"/><path d="M11.332,42.828h-.148l-7.272-.715a1.571,1.571,0,1,1,.271-3.131l7.3.715a1.569,1.569,0,0,1-.148,3.131Z" transform="translate(-1.855 -31.076)" fill="#fc657e"/><path d="M114.418,162.2H84.86l2.564-3.722a5.92,5.92,0,0,1,3.92-2.49l19.7-3.229a1.482,1.482,0,0,0,1.233-1.7,1.508,1.508,0,0,0-1.479-1.257l-20.535,3.353a9.012,9.012,0,0,0-5.276,3.6l-3.377,4.93a2.215,2.215,0,0,0,.567,3.082,2.3,2.3,0,0,0,1.257.394h30.988a1.483,1.483,0,0,0,1.479-1.479A1.453,1.453,0,0,0,114.418,162.2Z" transform="translate(-61.183 -114.579)" fill="#dae6f1"/><circle cx="1.528" cy="1.528" r="1.528" transform="translate(25.329 53.316)" fill="#5290db"/><circle cx="1.528" cy="1.528" r="1.528" transform="translate(46.382 53.316)" fill="#5290db"/><path d="M243.706,155.008h-.518v-.518a.69.69,0,0,0-1.381,0v.518h-.518a.69.69,0,1,0,0,1.381h.518v.518a.69.69,0,0,0,1.381,0v-.518h.518a.69.69,0,1,0,0-1.381Z" transform="translate(-181.275 -117.593)" fill="#70d6f9"/><path d="M76.062,24.592a2.419,2.419,0,0,1-1.948-1.9c0-.025-.025-.049-.049-.025a.024.024,0,0,0-.025.025,2.388,2.388,0,0,1-1.948,1.9c-.025,0-.049.025-.025.049a.024.024,0,0,0,.025.025,2.419,2.419,0,0,1,1.948,1.9c0,.025.025.049.049.025a.024.024,0,0,0,.025-.025,2.388,2.388,0,0,1,1.948-1.9c.025,0,.049-.025.025-.049C76.087,24.592,76.087,24.592,76.062,24.592Z" transform="translate(-54.283 -18.781)" fill="#f5c84c"/><circle cx="0.74" cy="0.74" r="0.74" transform="translate(15.049 10.569)" fill="#fc657e"/><circle cx="0.74" cy="0.74" r="0.74" transform="translate(13.324 32.016)" fill="#87d147"/><circle cx="0.74" cy="0.74" r="0.74" transform="translate(57.944 42.124)" fill="#f5c84c"/><path d="M1.937,18.581l7.272.69a1.061,1.061,0,0,0,.394,0L20.426,44.1a4.49,4.49,0,0,0,4.659,2.687,8.91,8.91,0,0,0-1.849,2l-3.377,4.881a2.826,2.826,0,0,0,.74,3.944,2.857,2.857,0,0,0,1.6.493h1.356a4.872,4.872,0,1,0,6.878.419,3.365,3.365,0,0,0-.419-.419H44.61a4.872,4.872,0,1,0,6.878.419,3.365,3.365,0,0,0-.419-.419h2.1a2.1,2.1,0,1,0,0-4.191H24.814l1.9-2.736a5.284,5.284,0,0,1,3.5-2.219l19.7-3.229a2.1,2.1,0,0,0,1.726-2.416,1.945,1.945,0,0,0-.32-.814l5.719-.937a2.628,2.628,0,0,0,2.219-2.613V24.276a2.067,2.067,0,0,0-2.071-2.071h-.049l-3.525.1-.74-3.008a1.12,1.12,0,0,0-1.257-.814l-1.5.222-.049-.32A5.843,5.843,0,0,0,43.4,13.5a7.541,7.541,0,0,0-1.011.247,1.325,1.325,0,0,0-.961-.247l-2.169.345-.1-.616A7.474,7.474,0,0,0,24.4,15.549l.1.616-2.243.345a1.284,1.284,0,0,0-1.085,1.331l.345,5.325-8.727.247-2-4.561a2.2,2.2,0,0,0,.394-3.082,2.175,2.175,0,0,0-1.528-.838l-7.3-.69A2.187,2.187,0,0,0-.035,16.215a2.15,2.15,0,0,0,1.972,2.367Zm21.6,17.084-.641-9.91,7.3,16.714-3.451.542Zm1.923,7.544-.641.1A.706.706,0,0,1,24,42.716v-.1l-.222-3.3Zm14.3-23.2a4.591,4.591,0,0,1,2.1-4.61l1.109,4.437-3.155.493ZM52.1,23.561l1.331,3.057,2.81,11.315v.025a.408.408,0,0,1-.271.493h-.049l-.961.148L48.456,23.66Zm-4.955.148,6.582,15.112-3.451.542L43.5,23.832Zm3.969,17.577-.345-.789,3.451-.542.32.764Zm-9.392,1.553-.37-.863,3.451-.542.37.838Zm-.863-2.021-2.712-6.237-.641-9.935,6.8,15.654Zm-1.874.271a.393.393,0,0,1-.444-.345v-.049l-.173-2.515,1.233,2.81ZM40.1,42.174l.37.863-3.427.567-.394-.887ZM35.785,43.8l-3.427.567-.394-.937,3.451-.542Zm10.65-1.726-.37-.814,3.451-.542.345.789ZM42.17,23.832,49,39.536l-3.451.542L38.521,23.931Zm-4.807-1.085-.049-.789,1.479-.222.148.961Zm-.69,8.48-3.106-7.149L36.2,24ZM32.235,24.1l4.684,10.748.394,5.917a1.566,1.566,0,0,0,.123.567l-1.282.2L28.586,24.2Zm-4.98.148L34.873,41.73l-3.451.542L23.631,24.35Zm3.427,19.377.419.937-3.427.567-.419-.961ZM30.46,61.772a3.649,3.649,0,1,1-3.649-3.649A3.64,3.64,0,0,1,30.46,61.772Zm21.053,0a3.649,3.649,0,1,1-3.649-3.649A3.64,3.64,0,0,1,51.513,61.772ZM50.428,43.5a.863.863,0,0,1-.715.986l-19.7,3.229A6.587,6.587,0,0,0,25.7,50.457L23.138,54.2a.628.628,0,0,0,.148.863.566.566,0,0,0,.345.1H53.189a.863.863,0,0,1,0,1.726H22.226a1.6,1.6,0,0,1-1.6-1.6,1.549,1.549,0,0,1,.3-.912L24.3,49.5A8.281,8.281,0,0,1,29.2,46.143L49.664,42.79a.838.838,0,0,1,.764.715Zm6.434-3.155-1.035.173-.32-.74.641-.1A1.64,1.64,0,0,0,57.5,37.81c0-.049-.025-.123-.025-.173l-1.06-4.216,1.652,3.8v1.75a1.427,1.427,0,0,1-1.208,1.381Zm.32-16.911a.817.817,0,0,1,.863.814v9.886l-3.427-7.889-.666-2.712Zm-5.448-3.722.641,2.613-12.2.32L40,21.515l9.1-1.405.2,1.257a.624.624,0,0,0,1.233-.2l-.2-1.257ZM43.6,14.736a4.6,4.6,0,0,1,5.251,3.846l.049.32-4.733.74-1.183-4.758A3.176,3.176,0,0,1,43.6,14.736Zm-3.18.2a5.939,5.939,0,0,0-.838.912l-.123-.764ZM25.6,15.377A6.266,6.266,0,0,1,37.979,13.4v.049l.1.616L25.7,15.993Zm-3.18,2.367,2.243-.345.3,1.849a.612.612,0,1,0,1.208-.2l-.3-1.849L38.25,15.278l.3,1.849a.584.584,0,0,0,.222.37,5.613,5.613,0,0,0-.222,2.712l.049.32-1.553.247a1.151,1.151,0,0,0-.961,1.183l.049.838-13.411.37-.345-5.374a.053.053,0,0,1,.049-.049Zm-.345,14.594-3.427-7.864L21.56,24.4ZM17.32,24.523,22.3,35.986l.444,6.705a1.959,1.959,0,0,0,2.046,1.874.682.682,0,0,0,.222-.025l.961-.148.419.986L25.11,45.6a3.3,3.3,0,0,1-3.55-1.923L13.3,24.621ZM2.233,15.451l7.272.69a.953.953,0,1,1-.173,1.9L2.06,17.373a.965.965,0,0,1,.173-1.923Z" transform="translate(0.046 -6.928)"/><path d="M102.345,224.99a2.145,2.145,0,1,0-2.145-2.145A2.146,2.146,0,0,0,102.345,224.99Zm0-3.057a.91.91,0,0,1,.912.912.926.926,0,0,1-.912.912.912.912,0,1,1,0-1.824Z" transform="translate(-75.487 -168)"/><path d="M187.745,224.99a2.145,2.145,0,1,0-2.145-2.145A2.146,2.146,0,0,0,187.745,224.99Zm0-3.057a.912.912,0,1,1-.912.912A.91.91,0,0,1,187.745,221.933Z" transform="translate(-139.834 -168)"/></g></g></svg>