<svg xmlns="http://www.w3.org/2000/svg" width="54.949" height="54.949" viewBox="0 0 54.949 54.949"><g transform="translate(0)"><g transform="translate(0.807 0.807)"><path d="M20.5,183.5H71.04v31.184H20.5Z" transform="translate(-19.102 -164.574)" fill="#e46a4a"/><path d="M20.5,443.5H71.04v3.226H20.5Z" transform="translate(-19.102 -396.616)" fill="#db380e"/><path d="M7.5,473.5H60.836v3.226H7.5Z" transform="translate(-7.5 -423.39)" fill="#e4e8ed"/><path d="M33.082,89.221a3.764,3.764,0,0,1-7.527,0,3.764,3.764,0,0,1-7.527,0,3.764,3.764,0,0,1-7.527,0V86.533L15.339,77.5H58.352l4.839,9.033v2.688a3.764,3.764,0,0,1-7.527,0,3.764,3.764,0,0,1-7.527,0,3.764,3.764,0,0,1-7.527,0,3.764,3.764,0,0,1-7.527,0Z" transform="translate(-10.177 -69.973)" fill="#faef93"/><path d="M59.427,160.264a3.764,3.764,0,0,1-3.764-3.764,3.764,3.764,0,0,1-7.527,0,3.764,3.764,0,0,1-7.527,0,3.764,3.764,0,0,1-7.527,0,3.764,3.764,0,0,1-7.527,0,3.764,3.764,0,0,1-7.527,0,3.763,3.763,0,0,1-7.5.474l-.031.063v2.688a3.764,3.764,0,0,0,7.527,0,3.764,3.764,0,0,0,7.527,0,3.764,3.764,0,0,0,7.527,0,3.764,3.764,0,0,0,7.527,0,3.764,3.764,0,0,0,7.527,0,3.764,3.764,0,0,0,7.527,0,3.764,3.764,0,0,0,7.527,0v-2.688l-.03-.066A3.763,3.763,0,0,1,59.427,160.264Z" transform="translate(-10.177 -140.478)" fill="#f8e868"/><g transform="translate(7.85 7.527)"><path d="M89.748,77.5l-1.721,9.033v2.688a3.764,3.764,0,0,1-7.527,0V86.533L83.3,77.5Z" transform="translate(-80.5 -77.5)" fill="#fff"/><path d="M227.6,77.5l.43,9.033v2.688a3.764,3.764,0,0,1-7.527,0V86.533l.645-9.033Z" transform="translate(-205.445 -77.5)" fill="#fff"/><path d="M352.952,77.5l2.581,9.033v2.688a3.764,3.764,0,0,1-7.527,0V86.533L346.5,77.5Z" transform="translate(-317.896 -77.5)" fill="#fff"/></g><g transform="translate(7.85 16.022)"><path d="M88.052,156.924a3.79,3.79,0,0,1-.025-.424,3.763,3.763,0,0,1-7.5.456l-.028.081v2.688a3.764,3.764,0,0,0,7.527,0v-2.688Z" transform="translate(-80.5 -156.5)" fill="#eaeaeb"/><path d="M228.014,159.28a3.763,3.763,0,0,1-7.5.041l-.016.2v2.688a3.764,3.764,0,0,0,7.527,0v-2.688Z" transform="translate(-205.445 -158.981)" fill="#eaeaeb"/><path d="M367.807,156.952a3.763,3.763,0,0,1-7.5-.452,3.807,3.807,0,0,1-.023.415l.023.123v2.688a3.764,3.764,0,0,0,7.527,0v-2.688Z" transform="translate(-330.198 -156.5)" fill="#eaeaeb"/></g><path d="M55.5,7.5H98.513v7.527H55.5Z" transform="translate(-50.338 -7.5)" fill="#faef93"/><path d="M55.5,47.5H98.513v3.226H55.5Z" transform="translate(-50.338 -43.199)" fill="#f8e868"/><path d="M20.5,343.5H38.781v13.979H20.5Z" transform="translate(-19.102 -307.369)" fill="#dba999"/><path d="M20.5,443.5H38.781v3.226H20.5Z" transform="translate(-19.102 -396.616)" fill="#d29380"/><path d="M60.5,283.5H71.253v6.452H60.5Z" transform="translate(-54.801 -253.821)" fill="#e4e8ed"/><path d="M60.5,313.5H71.253v3.226H60.5Z" transform="translate(-54.801 -280.595)" fill="#c8d1da"/><path d="M273.5,403.5h4.3v4.3h-4.3Z" transform="translate(-244.896 -360.917)" fill="#c4e5f9"/><path d="M275.651,324.5a2.151,2.151,0,0,0-2.151,2.151v2.581h4.3v-2.581A2.151,2.151,0,0,0,275.651,324.5Z" transform="translate(-244.896 -290.412)" fill="#faef93"/><path d="M273.5,259.5h4.839v3.656H273.5Z" transform="translate(-244.896 -232.402)" fill="#faef93"/><path d="M318.5,259.5h4.839v3.656H318.5Z" transform="translate(-285.057 -232.402)" fill="#c4e5f9"/><path d="M363.5,259.5h4.839v3.656H363.5Z" transform="translate(-325.218 -232.402)" fill="#faef93"/><path d="M408.5,259.5h4.839v3.656H408.5Z" transform="translate(-365.379 -232.402)" fill="#c4e5f9"/><path d="M315.651,324.5a2.151,2.151,0,0,0-2.151,2.151v2.581h4.3v-2.581A2.151,2.151,0,0,0,315.651,324.5Z" transform="translate(-280.595 -290.412)" fill="#faef93"/><path d="M355.651,324.5a2.151,2.151,0,0,0-2.151,2.151v2.581h4.3v-2.581A2.151,2.151,0,0,0,355.651,324.5Z" transform="translate(-316.294 -290.412)" fill="#faef93"/><path d="M313.5,403.5h4.3v4.3h-4.3Z" transform="translate(-280.595 -360.917)" fill="#c4e5f9"/><path d="M408.5,403.5h4.3v4.3h-4.3Z" transform="translate(-365.379 -360.917)" fill="#c4e5f9"/></g><g transform="translate(0 0)"><path d="M53.551,50.11V23a4.549,4.549,0,0,0,1.075-2.94V17.164l-2.261-4.22-1.422.762,1.529,2.854H46.9l-2.12-7.42H48.5l1.684,3.144,1.422-.762L49.788,8.131V0H34.464V1.613h13.71V7.527H6.775V1.613H32.851V0H5.162V8.131L.323,17.164v2.891A4.549,4.549,0,0,0,1.4,23v5.877H3.011V24.218a4.561,4.561,0,0,0,5.645-1.575,4.565,4.565,0,0,0,7.527,0,4.565,4.565,0,0,0,7.527,0,4.565,4.565,0,0,0,7.527,0,4.565,4.565,0,0,0,7.527,0,4.565,4.565,0,0,0,7.527,0,4.561,4.561,0,0,0,5.645,1.575v6.536H49.573V27.1H28.6v3.656H25.862v1.613H51.938v6.452H50.11v-4.57H48.5v4.57H46.884v-4.57H45.271v4.57H43.121V37.045a2.955,2.955,0,0,0-5.108-2.026,2.95,2.95,0,0,0-4.3,0A2.955,2.955,0,0,0,28.6,37.045v1.774H25.862v1.613H51.938v6.452h-2.9v-4.3H43.121v4.3h-4.3v-4.3H28.6v4.3H25.862V48.5h3.6V50.11H21.291V36.131H18.066V29.679H15.915V28.066H17.8V26.453H12.42v1.613H14.3v1.613H5.7v6.452H3.011V30.486H1.4V50.11H0v4.839H8.441V53.336H1.613V51.723H34.034V50.11H31.077V48.5H46.669V50.11H35.647v1.613H53.336v1.613H10.054v1.613H54.949V50.11ZM7.85,20.055a2.957,2.957,0,1,1-5.914,0V18.173H7.85Zm.212-3.495H2.476L6.451,9.14h3.907Zm7.315,3.495a2.957,2.957,0,1,1-5.914,0V18.173h5.914Zm.139-3.495H9.75l2.3-7.42H16.93ZM22.9,20.055a2.957,2.957,0,1,1-5.914,0V18.173H22.9Zm.056-3.495h-5.8l1.413-7.42H23.49Zm2.147-7.42h4.932l.353,7.42H24.577Zm5.325,10.915a2.957,2.957,0,1,1-5.914,0V18.173h5.914ZM31.654,9.14h4.923l1.237,7.42H32.007Zm6.305,10.915a2.957,2.957,0,1,1-5.914,0V18.173h5.914ZM38.212,9.14H43.1l2.12,7.42H39.449Zm7.274,10.915a2.957,2.957,0,1,1-5.914,0V18.173h5.914Zm-12.044,10.7H30.217V28.711h3.226Zm4.839,0H35.056V28.711h3.226Zm4.839,0H39.895V28.711h3.226Zm4.839,0H44.734V28.711H47.96ZM32.905,38.819H30.217V37.045a1.344,1.344,0,0,1,2.688,0Zm4.3,0H34.518V37.045a1.344,1.344,0,0,1,2.688,0Zm4.3,0H38.819V37.045a1.344,1.344,0,1,1,2.688,0Zm-34.2-7.527h9.14v4.839H7.312ZM19.679,43.658H16.184v1.613h3.495v1.613H14.033V48.5h5.645V50.11H3.011V37.744H19.679Zm13.227,3.226H30.217V44.2h2.688Zm4.3,0H34.518V44.2h2.688Zm10.216,0H44.734V44.2h2.688Zm4.516,3.226H48.282V48.5h3.656Zm1.075-30.055a2.957,2.957,0,1,1-5.914,0V18.173h5.914Z" transform="translate(0 0)"/></g><g transform="translate(7.581 3.764)"><path d="M100.5,436h1.613v1.613H100.5Z" transform="translate(-97.274 -392.879)" fill="#fff"/><path d="M70.5,436h1.613v1.613H70.5Z" transform="translate(-70.5 -392.879)" fill="#fff"/><path d="M226.065,36.613h-1.613V35h1.613Zm-3.226,0h-1.613V35h1.613Zm-3.226,0H218V35h1.613Z" transform="translate(-202.139 -35)" fill="#fff"/></g></g></svg>