<svg xmlns="http://www.w3.org/2000/svg" width="44" height="44" viewBox="0 0 44 44"><g transform="translate(-285.051 -925)"><circle cx="22" cy="22" r="22" fill="#ffcd80" transform="translate(285.051 925)"/><g fill="#997b4d" transform="translate(296.926 933)"><path d="M14.755 19.686a1.127 1.127 0 0 0 1.556-.331c2.614-4.025 3.939-7.13 3.939-9.23a10.125 10.125 0 1 0-20.25 0c0 5.23 8.314 15.336 9.262 16.475a1.13 1.13 0 0 0 .863.4 1.13 1.13 0 0 0 .863-.4 78 78 0 0 0 2.835-3.658 1.125 1.125 0 1 0-1.816-1.329c-.73 1-1.393 1.856-1.885 2.477-2.8-3.529-7.872-10.61-7.872-13.965a7.875 7.875 0 0 1 15.75 0c0 1.611-1.27 4.454-3.576 8a1.125 1.125 0 0 0 .331 1.556Zm0 0"/><path d="M6.188 9a3.937 3.937 0 1 0 3.937-3.937A3.94 3.94 0 0 0 6.188 9m5.625 0a1.687 1.687 0 1 1-1.687-1.687A1.69 1.69 0 0 1 11.813 9m0 0"/></g></g></svg>