<svg xmlns="http://www.w3.org/2000/svg" width="44" height="44" viewBox="0 0 44 44"><g transform="translate(-285.051 -983)"><circle cx="22" cy="22" r="22" fill="#ffcd80" transform="translate(285.051 983)"/><path fill="#997b4d" d="M316.099 998.24h-7.825a.76.76 0 0 1-.488-.2l-2.948-2.481a2.34 2.34 0 0 0-1.524-.549l-6.263.061v15.919a2.286 2.286 0 0 0 2.286 2.29h16.762a2.286 2.286 0 0 0 2.285-2.29v-10.464a2.286 2.286 0 0 0-2.285-2.286m.761 12.75a.76.76 0 0 1-.762.762h-16.761a.76.76 0 0 1-.762-.762v-14.411l4.77-.061a.8.8 0 0 1 .5.183l2.949 2.507a2.3 2.3 0 0 0 1.478.541h7.825a.76.76 0 0 1 .762.762Z"/></g></svg>