<svg xmlns="http://www.w3.org/2000/svg" width="56.033" height="61.508" viewBox="0 0 56.033 61.508"><g fill-rule="evenodd" transform="translate(-76 .5)"><path fill="#333" d="M87.6 61.008a3.494 3.494 0 1 1 3.35-4.431h7.385c0-2.558-.108-2.089 4.719-2.089v-4H76.9a.923.923 0 0 1-.9-.937V4.6a.9.9 0 0 1 .9-.937h3.206V.455a.93.93 0 0 1 .937-.937c2.125 0 20.569-.072 21 .072l.324.216 14.663 14.661a.92.92 0 0 1 .288.684v6.2a11.16 11.16 0 0 1 4 14.985l1.441 1.441a.914.914 0 0 1 1.3.036l7.709 7.673a.913.913 0 0 1 0 1.3l-4.143 4.143a.913.913 0 0 1-1.3 0l-7.709-7.709a.9.9 0 0 1 0-1.261l-1.3-1.3v4.791a.93.93 0 0 1-.937.937h-3.17v3.17a.954.954 0 0 1-.937.937h-7.349v4c4.827 0 4.719-.468 4.719 2.089h7.385a3.494 3.494 0 1 1 0 1.873h-7.385c0 .756.216 2.089-.937 2.089h-9.434c-1.117 0-.937-1.333-.937-2.089h-7.385a3.48 3.48 0 0 1-3.349 2.552m28.422-38.256a10 10 0 0 0-4.323-1.081 9.216 9.216 0 0 0-7.529 14.481l6.16-5.331-1.909-1.909a.936.936 0 0 1 .54-1.585l5.944-.684a.923.923 0 0 1 1.009 1.045l-.648 5.908a.939.939 0 0 1-1.585.576l-2.017-2.017-6.268 5.4a9.193 9.193 0 1 0 10.627-14.805Zm-.576-2.269v-4.395H101.72a.954.954 0 0 1-.937-.937V1.391H81.98V44.51h33.465v-3.242a11.18 11.18 0 0 1-11.455-2.486l-2.522 2.2a.96.96 0 0 1-1.333-.108l-6.556-8-5.62 5.187c-.865.829-2.125-.54-1.261-1.369l6.34-5.836a.967.967 0 0 1 1.369.072l6.556 8 1.8-1.549a11.04 11.04 0 0 1 12.68-16.895Zm-4.359 8.465 2.522 2.522.324-2.846Zm8.429 9.726-.792.756 1.189 1.189 1.549-1.549-1.225-1.189Zm2.377 5.187 2.81-2.81-1.3-1.3-2.81 2.81Zm6.592.973-2.81 2.81 1.3 1.3 2.81-2.81Zm-5.259.36 1.117 1.117 2.81-2.774L126 42.385ZM97.722 5.966h-12.68a.937.937 0 0 1 0-1.873h12.68a.937.937 0 0 1 0 1.873m0 4.683h-12.68a.937.937 0 0 1 0-1.873h12.68a.937.937 0 0 1 0 1.873m0 4.683h-12.68a.937.937 0 0 1 0-1.873h12.68a.937.937 0 0 1 0 1.873m0 4.647h-12.68a.919.919 0 1 1 0-1.837h12.68a.919.919 0 1 1 0 1.837m4.935-5.764h11.491L102.657 2.724Zm-22.55-8.681h-2.27v43.083h33.5v-2.234H81.043a.93.93 0 0 1-.937-.937ZM87.6 55.893a1.621 1.621 0 1 0 0 3.242 1.621 1.621 0 1 0 0-3.242m32.817 0a1.621 1.621 0 1 0 1.621 1.621 1.614 1.614 0 0 0-1.622-1.621Zm-12.609 1.657v-1.188h-7.6V58.7h7.6Z"/><path fill="#59bbff" d="m111.086 28.948 2.522 2.522.324-2.846Z"/><path fill="#59bbff" d="m115.913 27.688-.648 5.908a.94.94 0 0 1-1.585.576l-2.017-2.017-6.268 5.4a9.193 9.193 0 1 0 10.627-14.805 10 10 0 0 0-4.324-1.078 9.216 9.216 0 0 0-7.529 14.481l6.16-5.331-1.909-1.909a.937.937 0 0 1 .54-1.585l5.944-.684a.923.923 0 0 1 1.009 1.044"/><path fill="#ffe4af" d="M103.88 23.041a11.16 11.16 0 0 1 11.563-2.558v-4.392H101.72a.954.954 0 0 1-.937-.937V1.391H81.98V44.51h33.465v-3.242a11.18 11.18 0 0 1-11.455-2.486l-2.522 2.2a.96.96 0 0 1-1.333-.108l-6.556-8-5.62 5.187c-.865.829-2.125-.54-1.261-1.369l6.34-5.836a.967.967 0 0 1 1.369.072l6.556 8 1.8-1.549a11.12 11.12 0 0 1 1.117-14.338m-6.16-9.582a.937.937 0 0 1 0 1.873H85.04a.937.937 0 0 1 0-1.873Zm0-2.81H85.04a.937.937 0 0 1 0-1.873h12.68a.937.937 0 0 1 .002 1.873Zm0-4.683H85.04a.937.937 0 0 1 0-1.873h12.68a.937.937 0 0 1 .002 1.873Zm0 12.176a.919.919 0 0 1 0 1.837H85.04a.919.919 0 0 1 0-1.837Z"/><path fill="#a79673" d="M102.657 14.215h11.491L102.657 2.724Z"/><path fill="#ffe4af" d="M80.106 45.447V5.534h-2.269v43.083h33.5v-2.233H81.043a.93.93 0 0 1-.937-.937"/><path fill="#abaeb0" d="m119.515 38.674-.792.756 1.189 1.189 1.549-1.549-1.225-1.189Z"/><path fill="#8e4d21" d="m123.406 39.755-2.81 2.81 1.3 1.3 2.81-2.81Zm2.594 2.63-2.774 2.81 1.117 1.117 2.81-2.774Zm2.485 2.449-2.81 2.81 1.3 1.3 2.81-2.81Z"/><path fill="#ff3131" d="M89.22 57.514a1.614 1.614 0 0 0-1.621-1.621 1.621 1.621 0 1 0 0 3.242 1.614 1.614 0 0 0 1.621-1.621"/><path fill="#1aa1ff" d="M100.207 56.362v2.341h7.6v-2.341Z"/><path fill="#ff3131" d="M120.416 55.893a1.621 1.621 0 1 0 1.621 1.621 1.614 1.614 0 0 0-1.621-1.621"/></g></svg>