<svg xmlns="http://www.w3.org/2000/svg" width="116.234" height="116.234" viewBox="0 0 116.234 116.234"><defs><filter id="a" width="116.234" height="116.234" x="0" y="0" filterUnits="userSpaceOnUse"><feOffset dy="3"/><feGaussianBlur result="b" stdDeviation="3"/><feFlood flood-opacity=".412"/><feComposite in2="b" operator="in"/><feComposite in="SourceGraphic"/></filter></defs><g transform="translate(-1011.433 -457.999)"><g filter="url(#a)" transform="translate(1011.431 458)"><g fill="#ffe8c3" transform="translate(9 6)"><path d="M49.117 96.234c-6.361 0-12.532-1.245-18.34-3.702A47 47 0 0 1 15.8 82.434 47 47 0 0 1 5.702 67.457C3.245 61.649 2 55.479 2 49.117c0-6.361 1.245-12.532 3.702-18.34A47 47 0 0 1 15.8 15.8 47 47 0 0 1 30.778 5.702C36.585 3.245 42.756 2 49.118 2c6.36 0 12.531 1.245 18.339 3.702A47 47 0 0 1 82.434 15.8a47 47 0 0 1 10.098 14.978c2.457 5.807 3.702 11.978 3.702 18.34 0 6.36-1.245 12.531-3.702 18.339a47 47 0 0 1-10.098 14.977 47 47 0 0 1-14.977 10.098c-5.808 2.457-11.978 3.702-18.34 3.702"/><path fill="#fff" d="M49.117 4c-6.092 0-12 1.192-17.56 3.544a45 45 0 0 0-14.342 9.67 45 45 0 0 0-9.671 14.343C5.192 37.117 4 43.025 4 49.117c0 6.093 1.192 12 3.544 17.56a45 45 0 0 0 9.67 14.343 45 45 0 0 0 14.343 9.67c5.56 2.352 11.468 3.544 17.56 3.544 6.093 0 12-1.192 17.56-3.544a45 45 0 0 0 14.343-9.67 45 45 0 0 0 9.67-14.342c2.352-5.56 3.544-11.468 3.544-17.56 0-6.093-1.192-12.002-3.544-17.561a45 45 0 0 0-9.67-14.342 45 45 0 0 0-14.342-9.671C61.118 5.192 55.21 4 49.118 4m0-4c27.126 0 49.116 21.99 49.116 49.117s-21.99 49.117-49.117 49.117S0 76.244 0 49.117 21.99 0 49.117 0"/></g></g><g transform="translate(1024.202 474.75)"><g transform="translate(22.236 22.019)"><path fill="#fc9f02" d="M0 0h46.221v48.476H0Z"/><path fill="#ffd92e" d="m23.11 12.936 2.752 5.578 6.155.895-4.454 4.341 1.051 6.13-5.504-2.894-5.505 2.893 1.052-6.13-4.452-4.341 6.155-.895Z"/><path fill="#fb7817" d="m0 48.476 9.853-9.853h26.515l9.853 9.853Z"/></g><g transform="translate(21.25 5.25)"><path d="M33.943 35.872a.99.99 0 0 0-.8-.671l-5.642-.82-2.519-5.112a.986.986 0 0 0-1.769 0l-2.523 5.112-5.642.82a.986.986 0 0 0-.546 1.683l4.083 3.979-.964 5.619a.986.986 0 0 0 1.435 1.037l5.046-2.653 5.041 2.653a.986.986 0 0 0 1.431-1.04l-.964-5.619 4.083-3.979a.99.99 0 0 0 .25-1.009m-6.08 3.94a.99.99 0 0 0-.282.873l.713 4.16-3.738-1.964a.99.99 0 0 0-.918 0l-3.735 1.964.713-4.16a.99.99 0 0 0-.282-.873l-3.022-2.946 4.177-.607a.98.98 0 0 0 .742-.539l1.865-3.787 1.869 3.786a.99.99 0 0 0 .743.539l4.177.607Z"/><path d="M47.208 15.783H36.921v-2.959a12.824 12.824 0 1 0-25.647 0v2.959H.986a.986.986 0 0 0-.986.986v28.346a.987.987 0 1 0 1.973 0V17.756h9.3v5.461a.987.987 0 0 0 1.973 0v-5.461H34.95v5.461a.987.987 0 0 0 1.973 0v-5.461h9.3v9.1a.987.987 0 0 0 1.973 0V16.769a.986.986 0 0 0-.986-.986Zm-33.961 0v-2.959a10.851 10.851 0 1 1 21.7 0v2.959Zm33.961 23.169a.986.986 0 0 0-.986.986v22.926l-8.172-8.166a1 1 0 0 0-.7-.289H10.839a1 1 0 0 0-.7.288L1.97 62.866V50.251a.987.987 0 0 0-1.973 0v14.994a.986.986 0 0 0 .986.986h12.146a.987.987 0 0 0 0-1.973H3.368l7.88-7.88H36.95l7.88 7.88H18.266a.987.987 0 0 0 0 1.973h28.942a.986.986 0 0 0 .986-.986V39.936a.986.986 0 0 0-.986-.984m-.001-7.94a.986.986 0 0 0-.986.986v2.8a.987.987 0 1 0 1.973 0v-2.8a.986.986 0 0 0-.986-.986Z"/></g></g></g></svg>