<svg xmlns="http://www.w3.org/2000/svg" width="120.218" height="120.218" viewBox="0 0 120.218 120.218"><defs><filter id="a" width="120.218" height="120.218" x="0" y="0" filterUnits="userSpaceOnUse"><feOffset dy="3"/><feGaussianBlur result="b" stdDeviation="3"/><feFlood flood-opacity=".412"/><feComposite in2="b" operator="in"/><feComposite in="SourceGraphic"/></filter></defs><g transform="translate(-1024.157 -162.086)"><g filter="url(#a)" transform="translate(1024.157 162.086)"><g fill="#e2dacc" transform="translate(9 6)"><path d="M51.109 100.218c-6.63 0-13.062-1.298-19.115-3.859a49 49 0 0 1-15.61-10.525 49 49 0 0 1-10.526-15.61C3.298 64.17 2 57.739 2 51.109s1.298-13.062 3.858-19.115a49 49 0 0 1 10.526-15.61 49 49 0 0 1 15.61-10.526C38.047 3.298 44.478 2 51.11 2s13.06 1.298 19.114 3.858a49 49 0 0 1 15.61 10.526 49 49 0 0 1 10.525 15.61c2.56 6.053 3.859 12.484 3.859 19.115S98.92 64.17 96.359 70.224a49 49 0 0 1-10.525 15.61 49 49 0 0 1-15.61 10.525c-6.053 2.56-12.485 3.859-19.115 3.859"/><path fill="#fff" d="M51.109 4a46.96 46.96 0 0 0-33.311 13.798A47 47 0 0 0 7.7 32.773C5.245 38.578 4 44.747 4 51.11s1.245 12.53 3.7 18.336A47 47 0 0 0 17.798 84.42a47 47 0 0 0 14.975 10.097c5.805 2.456 11.974 3.7 18.336 3.7s12.53-1.244 18.336-3.7A47 47 0 0 0 84.42 84.42a47 47 0 0 0 10.097-14.975c2.456-5.806 3.7-11.975 3.7-18.336 0-6.362-1.244-12.53-3.7-18.336A47 47 0 0 0 84.42 17.798 47 47 0 0 0 69.445 7.7C63.639 5.245 57.47 4 51.109 4m0-4c28.227 0 51.109 22.882 51.109 51.109s-22.882 51.109-51.11 51.109C22.883 102.218 0 79.336 0 51.108 0 22.883 22.882 0 51.109 0"/></g></g><g transform="translate(1032.929 167.861)"><g fill-rule="evenodd" transform="translate(16.009 16.008)"><path d="M52.683 11.185a12.9 12.9 0 1 1-9.118 3.777 12.9 12.9 0 0 1 9.118-3.777M4.94 33.231a1.36 1.36 0 0 0-1.36 1.36v2.081a1.36 1.36 0 0 0 1.36 1.36h34.239a1.36 1.36 0 0 0 1.36-1.36v-2.08a1.36 1.36 0 0 0-1.36-1.36h-1.228V13.824a5.5 5.5 0 0 0 1.374-.775 3.97 3.97 0 0 0 1.638-3.126.8.8 0 0 0-.076-.343L37.201.506a.81.81 0 0 0-.749-.5H7.667a.81.81 0 0 0-.765.545l-3.67 9.035a.8.8 0 0 0-.076.343 3.97 3.97 0 0 0 1.635 3.12 5.5 5.5 0 0 0 1.374.775v19.407Zm8.062 37.043L.124 49.922a.807.807 0 0 1 .253-1.112l8.024-5.077a.807.807 0 0 1 1.112.253l2.038 3.22 11.283-3.914a7.8 7.8 0 0 1 5.219-.028l16.817 5.632a4.18 4.18 0 0 1 2.342 1.961l12.2-6.322a4.4 4.4 0 0 1 3.189-.343 4.1 4.1 0 0 1 2.49 1.942 4.2 4.2 0 0 1-1.611 5.727L43.158 63.592a7.8 7.8 0 0 1-5.551 1.215l-14.992-2.163-.947.552.722 1.142a.807.807 0 0 1-.253 1.112l-8.024 5.077a.807.807 0 0 1-1.112-.253ZM47.651 9.349l-1.114-.427a16.353 16.353 0 1 1 6.145 31.507.81.81 0 0 0 0 1.618 17.969 17.969 0 1 0-6.725-34.631l.384-1a.808.808 0 1 0-1.511-.575l-1.1 2.878a.81.81 0 0 0 .468 1.043l2.878 1.1a.808.808 0 1 0 .575-1.511Z"/><path fill="#f8c52d" d="M60.658 16.106a11.277 11.277 0 1 0 3.3 7.974 11.28 11.28 0 0 0-3.3-7.974m-7.166 14.319v1a.81.81 0 1 1-1.618 0v-1a4.3 4.3 0 0 1-.723-.2 3.41 3.41 0 0 1-2.342-3.329.81.81 0 0 1 1.618 0 1.86 1.86 0 0 0 1.281 1.812 2.92 2.92 0 0 0 1.952 0 1.86 1.86 0 0 0 1.281-1.812c0-1.507-1.217-1.773-2.432-2.038-1.85-.4-3.7-.807-3.7-3.6a3.41 3.41 0 0 1 2.342-3.329 4.3 4.3 0 0 1 .723-.2v-1a.81.81 0 1 1 1.618 0v1a4.3 4.3 0 0 1 .723.2 3.41 3.41 0 0 1 2.343 3.329.81.81 0 0 1-1.618 0 1.86 1.86 0 0 0-1.281-1.812 2.9 2.9 0 0 0-1.952 0 1.86 1.86 0 0 0-1.281 1.812c0 1.492 1.21 1.756 2.422 2.021 1.853.4 3.709.81 3.709 3.618a3.41 3.41 0 0 1-2.343 3.329 4.4 4.4 0 0 1-.723.2Z"/><path fill="#f7f7f8" d="M21.08 10.732h-7.087a2.7 2.7 0 0 0 .841 1.047 4.685 4.685 0 0 0 5.405 0 2.7 2.7 0 0 0 .841-1.047"/><path fill="#e6e6e6" d="M30.127 10.732H23.04a2.7 2.7 0 0 0 .841 1.047 4.685 4.685 0 0 0 5.4 0 2.7 2.7 0 0 0 .846-1.047"/><path fill="#f7f7f8" d="M39.174 10.732h-7.087a2.7 2.7 0 0 0 .841 1.047 4.685 4.685 0 0 0 5.405 0 2.7 2.7 0 0 0 .841-1.047"/><path fill="#85beed" d="m15.521 1.617-1.522 7.5h7.252v-7.5Z"/><path fill="#00a0e6" d="m12.358 9.117 1.519-7.5H8.211l-3.045 7.5Z"/><path fill="#85beed" d="m30.242 1.617 1.522 7.5h7.189l-3.045-7.5Z"/><path fill="#00a0e6" d="m30.121 9.117-1.526-7.5h-5.729v7.5Z"/><path fill="#e6e6e6" d="M8.489 12.637a4.4 4.4 0 0 0 2.7-.858 2.7 2.7 0 0 0 .841-1.047H4.946a2.7 2.7 0 0 0 .841 1.047 4.44 4.44 0 0 0 2.702.858"/><path fill="#d8906c" d="M38.921 34.849H5.199v1.565h33.722Z"/></g><path fill="#fff" d="M27.189 36.175h7.478v13.064h-7.478Z"/><path fill="#fbc979" fill-rule="evenodd" d="M25.572 49.239V35.366a.81.81 0 0 1 .81-.81h9.1a.81.81 0 0 1 .81.81v13.873h16.052V30.226a7 7 0 0 1-.7.037 6.04 6.04 0 0 1-3.695-1.206 4.7 4.7 0 0 1-.829-.827 4.7 4.7 0 0 1-.829.827 6.265 6.265 0 0 1-7.389 0 4.7 4.7 0 0 1-.829-.827 4.7 4.7 0 0 1-.829.827 6.265 6.265 0 0 1-7.389 0 4.7 4.7 0 0 1-.829-.827 4.7 4.7 0 0 1-.829.826 6.04 6.04 0 0 1-3.695 1.206 7 7 0 0 1-.7-.037v19.013ZM39.691 34.7h9.3a.81.81 0 0 1 .81.81v5.762a.81.81 0 0 1-.81.81h-9.3a.81.81 0 0 1-.81-.81v-5.763a.81.81 0 0 1 .809-.808Z"/><path fill="#fff" d="M40.499 36.318h7.685v4.144h-7.685Z"/><path fill="#ffcbc1" fill-rule="evenodd" d="m28.444 64.613 8.37 13.227 1.219-.711a.8.8 0 0 1 .543-.116l15.268 2.205a6.5 6.5 0 0 0 2.32-.066 6.8 6.8 0 0 0 2.167-.927c6.794-3.922 13.578-7.9 20.4-11.776a2.585 2.585 0 0 0 .974-3.51 2.5 2.5 0 0 0-1.519-1.181 2.78 2.78 0 0 0-2.02.223l-12.449 6.451a4.21 4.21 0 0 1-2.479 4.2 3.87 3.87 0 0 1-3.016.216l-12.284-4.114a.807.807 0 1 1 .512-1.53l12.284 4.114a2.3 2.3 0 0 0 1.783-.132 2.5 2.5 0 0 0 1.335-3.455 2.55 2.55 0 0 0-1.546-1.317l-16.752-5.608a6.2 6.2 0 0 0-4.183.021Z"/><path fill="#689ff2" fill-rule="evenodd" d="M17.928 65.751 29.944 84.74l6.66-4.214-12.016-18.989Z"/></g></g></svg>